<?xml version="1.0" encoding="iso-8859-1"?>
<!-- Generator: Adobe Illustrator 19.0.0, SVG Export Plug-In . SVG Version: 6.00 Build 0)  -->
<svg version="1.1" id="Capa_1" xmlns="http://www.w3.org/2000/svg" xmlns:xlink="http://www.w3.org/1999/xlink" x="0px" y="0px"
	 viewBox="0 0 468.293 468.293" style="enable-background:new 0 0 468.293 468.293;" xml:space="preserve">
<path style="fill:#EBF0F3;" d="M468.293,205.237c0,50.138-40.648,90.786-90.787,90.786H64.811C29.034,296.023,0,266.99,0,231.212
	c0-21.104,10.115-39.836,25.787-51.637c-1.936-7.368-3.059-15.048-3.059-22.978c0-50.138,40.648-90.786,90.787-90.786
	c19.169,0,36.839,5.932,51.512,16.172c0.062,0,0.062,0.063,0.125,0.063c0.687-1.249,1.374-2.498,2.123-3.684
	c19.543-33.53,55.82-55.945,97.405-55.945c55.259,0,101.151,39.712,110.829,92.16c0.188,0,0.312,0,0.5-0.063
	c0.5,0,0.999-0.063,1.498-0.063c1.811,0,3.559,0.063,5.37,0.188C430.517,117.385,468.293,156.909,468.293,205.237z"/>
<g>
	<path style="fill:#D5D6DB;" d="M382.876,114.638c-1.998,32.843-19.168,97.592-121.631,108.332c0,0,83.918-32.843,114.763-108.457
		c0.5,0,0.999-0.063,1.498-0.063C379.317,114.451,381.065,114.513,382.876,114.638z"/>
	<path style="fill:#D5D6DB;" d="M101.9,229.464c0,0,63.875-72.617,63.126-147.481c0.062,0,0.062,0.063,0.125,0.063
		c0.687-1.249,1.374-2.498,2.123-3.684C174.142,103.586,185.444,177.389,101.9,229.464z"/>
</g>
<circle style="fill:#3EA69B;" cx="234.146" cy="296.023" r="149.854"/>
<circle style="fill:#44C4A1;" cx="234.146" cy="296.023" r="127.875"/>
<g>
	<path style="fill:#3EA69B;" d="M234.214,407.913c-7.388,0-14.678-0.708-21.765-2.103l1.66-8.443
		c6.554,1.288,13.295,1.942,20.038,1.942l0.103,7.779l-0.002,0.826C234.235,407.913,234.224,407.913,234.214,407.913z
		 M256.076,405.768l-1.681-8.443c6.623-1.318,13.135-3.297,19.357-5.882l3.303,7.947
		C270.312,402.193,263.252,404.339,256.076,405.768z M191.454,399.481c-6.754-2.791-13.261-6.264-19.343-10.326l4.778-7.157
		c5.615,3.747,11.62,6.953,17.851,9.527L191.454,399.481z M296.377,389.027l-4.791-7.149c5.598-3.753,10.857-8.077,15.632-12.858
		l6.09,6.081C308.138,380.279,302.441,384.963,296.377,389.027z M155.152,375.267c-5.176-5.159-9.866-10.849-13.942-16.911
		l7.144-4.804c3.763,5.6,8.096,10.855,12.875,15.621L155.152,375.267z M327.214,358.158l-7.153-4.787
		c3.755-5.615,6.968-11.618,9.546-17.842l7.951,3.295C334.764,345.567,331.284,352.073,327.214,358.158z M130.825,339.043
		c-2.814-6.749-4.965-13.808-6.396-20.975l8.439-1.685c1.322,6.613,3.305,13.123,5.9,19.349L130.825,339.043z M343.911,317.838
		l-8.443-1.668c1.303-6.594,1.963-13.373,1.963-20.145v-0.452h8.607v0.452C346.037,303.356,345.323,310.696,343.911,317.838z
		 M122.256,296.251v-0.227c0-7.26,0.7-14.522,2.08-21.583l8.447,1.652c-1.273,6.518-1.921,13.224-1.921,19.931L122.256,296.251z
		 M335.383,275.453c-1.336-6.609-3.335-13.112-5.945-19.334l7.939-3.328c2.828,6.743,4.995,13.795,6.441,20.961L335.383,275.453z
		 M138.604,256.719l-7.96-3.278c2.78-6.754,6.247-13.266,10.303-19.355l7.165,4.77C144.368,244.477,141.17,250.487,138.604,256.719z
		 M319.819,238.314c-3.772-5.585-8.113-10.83-12.908-15.592l6.064-6.106c5.19,5.152,9.893,10.834,13.976,16.882L319.819,238.314z
		 M160.922,223.182l-6.102-6.069c5.157-5.184,10.843-9.88,16.901-13.961l4.808,7.14
		C170.935,214.059,165.683,218.396,160.922,223.182z M291.222,209.929c-5.629-3.74-11.643-6.932-17.874-9.49l3.27-7.964
		c6.752,2.774,13.268,6.232,19.366,10.284L291.222,209.929z M194.339,200.69l-3.32-7.943c6.743-2.818,13.797-4.976,20.965-6.417
		l1.698,8.439C207.067,196.097,200.559,198.089,194.339,200.69z M253.97,194.64c-6.489-1.261-13.158-1.9-19.824-1.9l-0.237-6.001
		l0.158-2.606c7.134,0.032,14.518,0.691,21.547,2.059L253.97,194.64z"/>
	<path style="fill:#3EA69B;" d="M260.465,296.023c9.012-6.859,14.293-17.378,14.293-28.815c0-20.02-16.288-36.307-36.307-36.307
		h-4.082v-14.985h-7.493v14.985h-8.741v-14.985h-7.493v14.985h-7.493h-9.613v14.985h9.613v42.644h-9.613v14.985h9.613v42.644h-9.613
		v14.985h9.613h7.493v14.985h7.493v-14.985h8.741v14.985h7.493v-14.985h4.082c20.02,0,36.307-16.288,36.307-36.307
		C274.757,313.401,269.477,302.882,260.465,296.023z M238.45,346.16h-20.316v-42.644h20.316c11.756,0,21.322,9.566,21.322,21.322
		S250.206,346.16,238.45,346.16z M238.45,288.531h-20.316v-42.644h20.316c11.756,0,21.322,9.566,21.322,21.322
		C259.772,278.965,250.206,288.531,238.45,288.531z"/>
</g>
<g>
</g>
<g>
</g>
<g>
</g>
<g>
</g>
<g>
</g>
<g>
</g>
<g>
</g>
<g>
</g>
<g>
</g>
<g>
</g>
<g>
</g>
<g>
</g>
<g>
</g>
<g>
</g>
<g>
</g>
</svg>
