<?xml version="1.0" encoding="UTF-8" standalone="no"?>
<!-- Generator: Adobe Illustrator 18.0.0, SVG Export Plug-In . SVG Version: 6.00 Build 0)  -->

<svg
   xmlns:dc="http://purl.org/dc/elements/1.1/"
   xmlns:cc="http://creativecommons.org/ns#"
   xmlns:rdf="http://www.w3.org/1999/02/22-rdf-syntax-ns#"
   xmlns:svg="http://www.w3.org/2000/svg"
   xmlns="http://www.w3.org/2000/svg"
   xmlns:sodipodi="http://sodipodi.sourceforge.net/DTD/sodipodi-0.dtd"
   xmlns:inkscape="http://www.inkscape.org/namespaces/inkscape"
   version="1.1"
   id="Capa_1"
   x="0px"
   y="0px"
   viewBox="0 0 799.99999 599.99999"
   xml:space="preserve"
   sodipodi:docname="bg.svg"
   inkscape:version="0.92.2 5c3e80d, 2017-08-06"
   width="800"
   height="600"><metadata
     id="metadata1027"><rdf:RDF><cc:Work
         rdf:about=""><dc:format>image/svg+xml</dc:format><dc:type
           rdf:resource="http://purl.org/dc/dcmitype/StillImage" /><dc:title></dc:title></cc:Work></rdf:RDF></metadata><defs
     id="defs1025" /><sodipodi:namedview
     pagecolor="#ffffff"
     bordercolor="#666666"
     borderopacity="1"
     objecttolerance="10"
     gridtolerance="10"
     guidetolerance="10"
     inkscape:pageopacity="0"
     inkscape:pageshadow="2"
     inkscape:window-width="1680"
     inkscape:window-height="925"
     id="namedview1023"
     showgrid="false"
     inkscape:zoom="1.5"
     inkscape:cx="674.0984"
     inkscape:cy="268.03969"
     inkscape:window-x="0"
     inkscape:window-y="1"
     inkscape:window-maximized="1"
     inkscape:current-layer="g985" /><g
     id="g990"
     transform="translate(0,137.30099)"><g
       id="XMLID_24_"><g
         id="g985"><rect
           style="opacity:1;fill:#006ac3;fill-opacity:0.94117647;stroke:none;stroke-width:0.77964979;stroke-miterlimit:1.5;stroke-dasharray:none;stroke-opacity:1"
           id="rect1050"
           width="807.51868"
           height="614.06433"
           x="1.2495922"
           y="-141.0083" /><g
           id="g1062"
           transform="translate(340.58977,-70.710678)"><path
             inkscape:connector-curvature="0"
             id="path965"
             d="m 136.353,186.349 v 49.96 c 0,17.86 -14.54,32.4 -32.4,32.4 -17.87,0 -32.4,-14.54 -32.4,-32.4 v -18.6 c 0,-2.76 2.24,-5 5,-5 2.75,0 5,2.24 5,5 v 18.6 c 0,12.35 10.05,22.4 22.4,22.4 12.35,0 22.4,-10.05 22.4,-22.4 v -46.81 c 3.04,-0.61 6.07,-1.53 9.04,-2.76 0.32,-0.14 0.64,-0.26 0.96,-0.39 z"
             style="fill:#006ac3;fill-opacity:0.94117647" /><path
             inkscape:connector-curvature="0"
             id="path967"
             d="m 391.153,217.709 v 18.6 c 0,17.86 -14.54,32.4 -32.4,32.4 -17.87,0 -32.4,-14.54 -32.4,-32.4 v -49.96 c 0.31,0.13 0.63,0.25 0.95,0.39 2.98,1.23 6,2.14 9.05,2.75 v 46.82 c 0,12.35 10.05,22.4 22.4,22.4 12.35,0 22.4,-10.05 22.4,-22.4 v -18.6 c 0,-2.76 2.24,-5 5,-5 2.75,0 5,2.24 5,5 z"
             style="fill:#006ac3;fill-opacity:0.94117647" /><path
             inkscape:connector-curvature="0"
             id="path969"
             d="m 261.353,381.569 v 60.88 c 0,2.76 -2.25,5 -5,5 -2.76,0 -5,-2.24 -5,-5 v -122.79 c 0,-4.14 -3.36,-7.5 -7.5,-7.5 -4.15,0 -7.5,3.36 -7.5,7.5 v 77.5 c 0,2.75 -2.25,5 -5,5 -2.76,0 -5,-2.25 -5,-5 v -77.5 c 0,-4.14 -3.36,-7.5 -7.5,-7.5 -4.15,0 -7.5,3.36 -7.5,7.5 v 122.79 c 0,2.76 -2.25,5 -5,5 -2.76,0 -5,-2.24 -5,-5 v -60.88 -62.91 -23.5 c 0,-16.54 13.46,-30 30,-30 16.54,0 30,13.46 30,30 v 23.5 z m -6.63,-94.06 c 1.52,-3.85 -0.36,-8.21 -4.21,-9.74 -12.36,-4.89 -25.97,-4.89 -38.32,0 -3.85,1.53 -5.74,5.89 -4.22,9.74 1.53,3.85 5.89,5.73 9.74,4.21 8.79,-3.48 18.48,-3.48 27.28,0 0.9,0.36 1.84,0.53 2.75,0.53 2.99,0 5.81,-1.8 6.98,-4.74 z"
             style="fill:#006ac3;fill-opacity:0.94117647" /><path
             inkscape:connector-curvature="0"
             id="path971"
             d="m 366.153,318.099 v 7.91 c 0,17.86 -14.19,32.72 -31.62,33.14 -8.8,0.2 -17.1,-3.07 -23.4,-9.22 -6.31,-6.16 -9.78,-14.39 -9.78,-23.17 v -34.6 c 0,-23.03 -11.33,-44.59 -30.32,-57.67 -10.97,-7.56 -17.51,-19.73 -17.51,-32.57 v -0.26 c 0,-4.7 3.69,-8.55 8.33,-8.81 v 9.14 c 0,4.14 3.35,7.5 7.5,7.5 4.14,0 7.5,-3.36 7.5,-7.5 v -9.16 h 12.82 c 4.14,0 7.5,-3.36 7.5,-7.5 0,-4.14 -3.36,-7.5 -7.5,-7.5 h -27.32 c -13.14,0 -23.83,10.69 -23.83,23.83 v 0.26 c 0,17.77 8.97,34.56 24,44.92 14.92,10.28 23.83,27.22 23.83,45.32 v 89.73 c 0,12.19 9.34,22.21 21.28,22.8 8.78,0.44 17.02,-4.33 21.04,-12.13 0.87,-1.69 2.58,-2.74 4.45,-2.74 2.56,0 3.88,1.7 4.33,2.43 0.42,0.7 1.3,2.54 0.22,4.67 -5.63,11.1 -17.33,18.08 -29.71,17.79 -17.43,-0.41 -31.61,-15.28 -31.61,-33.14 v -86.41 c 0,-24.82 -20.19,-45 -45,-45 -24.82,0 -45,20.18 -45,45 v 86.41 c 0,17.86 -14.19,32.73 -31.62,33.14 -12.4,0.29 -24.07,-6.69 -29.7,-17.79 -1.08,-2.13 -0.21,-3.97 0.22,-4.67 0.45,-0.73 1.77,-2.43 4.32,-2.43 1.88,0 3.58,1.05 4.45,2.73 4.03,7.81 12.28,12.59 21.05,12.14 11.93,-0.59 21.28,-10.61 21.28,-22.8 v -89.73 c 0,-14.68 5.72,-28.5 16.09,-38.89 2.44,-2.43 5.11,-4.64 7.94,-6.57 14.9,-10.16 23.8,-27 23.8,-45.04 0,-13.14 -10.69,-23.83 -23.83,-23.83 h -27.33 c -4.14,0 -7.5,3.36 -7.5,7.5 0,4.14 3.36,7.5 7.5,7.5 h 12.83 v 9.16 c 0,4.14 3.35,7.5 7.5,7.5 4.14,0 7.5,-3.36 7.5,-7.5 v -9.14 c 4.63,0.26 8.33,4.11 8.33,8.81 0,13.07 -6.45,25.28 -17.25,32.65 -3.6,2.45 -6.99,5.26 -10.09,8.35 -13.22,13.24 -20.49,30.82 -20.49,49.5 v 33.85 c 0,17.86 -14.19,32.72 -31.62,33.14 -8.81,0.2 -17.1,-3.07 -23.4,-9.22 -6.31,-6.16 -9.78,-14.39 -9.78,-23.17 v -8.24 c 0,-2.89 2.24,-5.37 4.9,-5.41 1.37,-0.03 2.64,0.48 3.6,1.43 0.97,0.95 1.5,2.21 1.5,3.56 v 8.23 c 0,12.2 9.35,22.22 21.28,22.8 6.21,0.3 12.07,-1.88 16.56,-6.16 4.42,-4.21 6.96,-10.12 6.96,-16.21 v -86 c 0,-10.81 8.79,-19.6 19.6,-19.6 4.14,0 7.5,-3.36 7.5,-7.5 0,-4.14 -3.36,-7.5 -7.5,-7.5 -7.28,0 -14.03,2.26 -19.6,6.11 v -31.53 c 25.76,-8.73 52.6,-13.16 80,-13.16 27.4,0 54.23,4.43 80,13.16 v 31.53 c -5.58,-3.85 -12.33,-6.11 -19.6,-6.11 -4.15,0 -7.5,3.36 -7.5,7.5 0,4.14 3.35,7.5 7.5,7.5 10.81,0 19.6,8.79 19.6,19.6 v 85.57 c 0,12.2 9.35,22.22 21.28,22.8 6.17,0.3 12.07,-1.88 16.56,-6.15 4.42,-4.22 6.96,-10.13 6.96,-16.22 v -8.24 c 0,-2.89 2.24,-5.37 4.91,-5.41 1.34,-0.02 2.63,0.48 3.59,1.42 0.97,0.95 1.5,2.22 1.5,3.57 z"
             style="fill:#006ac3;fill-opacity:0.94117647" /><path
             inkscape:connector-curvature="0"
             id="path973"
             d="m 231.353,64.159 c 8.54,0 15.5,6.95 15.5,15.5 0,8.54 -6.96,15.5 -15.5,15.5 -8.55,0 -15.5,-6.96 -15.5,-15.5 0,-8.55 6.95,-15.5 15.5,-15.5 z"
             style="fill:#006ac3;fill-opacity:0.94117647" /><path
             inkscape:connector-curvature="0"
             id="path975"
             d="m 371.413,162.269 c -8.69,11.85 -24.37,16.43 -38.35,10.62 -32.4,-13.48 -66.62,-20.31 -101.71,-20.31 -35.09,0 -69.32,6.83 -101.72,20.31 -13.98,5.82 -29.66,1.23 -38.35,-10.62 44.91,-16.9 91.98,-25.47 140.07,-25.47 48.08,0 95.15,8.57 140.06,25.47 z"
             style="fill:#006ac3;fill-opacity:0.94117647" /><path
             inkscape:connector-curvature="0"
             id="path977"
             d="m 409.133,91.379 -30.33,57.64 c -47.24,-18.06 -96.81,-27.22 -147.45,-27.22 -50.65,0 -100.22,9.16 -147.45,27.22 l -30.34,-57.64 7.94,-1.38 c 32.43,-5.64 60.92,-23.42 80.23,-50.07 6.35,-8.75 13.79,-16.44 22.18,-22.91 19.9,13.64 43.1,20.82 67.44,20.82 24.34,0 47.54,-7.18 67.44,-20.82 8.38,6.47 15.83,14.15 22.17,22.91 19.31,26.65 47.81,44.43 80.23,50.07 z m -147.28,-11.72 c 0,-16.82 -13.69,-30.5 -30.5,-30.5 -16.82,0 -30.5,13.68 -30.5,30.5 0,16.82 13.68,30.5 30.5,30.5 16.81,0 30.5,-13.68 30.5,-30.5 z"
             style="fill:#006ac3;fill-opacity:0.94117647" /><path
             sodipodi:nodetypes="cccccsssssssscsccsscssscscsccscccsccssscscsssccsccsccscccscsscsssccscsssssssscccccccccscccccccccccscccccscssssssscccsssssccssccsssssccsccsssssccssccssccssccscssscsssssccssccscccssssscccsccsscsssssscssscsscssccsccsccscsccsssccsssssssssssssssscccsssssssss"
             inkscape:connector-curvature="0"
             id="path979"
             d="m 427.303,82.449 c 1.05,2.15 1.02,4.68 -0.1,6.8 L 404.47633,132.4365 387.283,165.109 c -7.48,14.22 -21.08,23.12 -35.93,24.95 v 46.25 c 0,4.08 3.32,7.4 7.4,7.4 4.08,0 7.4,-3.32 7.4,-7.4 v -18.6 c 0,-11.03 8.97,-20 20,-20 11.03,0 20,8.97 20,20 v 18.6 c 0,26.13 -21.27,47.4 -47.4,47.4 -12.52,0 -23.92,-4.89 -32.4,-12.85 v 55.47 c 0,4.12 3.14,7.63 7.01,7.82 2.05,0.1 4,-0.63 5.48,-2.04 1.49,-1.41 2.31,-3.31 2.31,-5.35 v -8.24 c 0,-11.07 8.81,-20.22 19.64,-20.41 5.4,-0.11 10.51,1.93 14.37,5.72 3.86,3.79 5.99,8.86 5.99,14.27 v 7.91 c 0,25.93 -20.76,47.53 -46.26,48.14 -0.39,0 -0.77,0.01 -1.16,0.01 -12.12,0 -23.53,-4.54 -32.38,-12.85 v 20.58 c 0,4.12 3.15,7.63 7.02,7.82 2.9,0.13 5.63,-1.44 6.97,-4.03 3.45,-6.7 10.26,-10.86 17.78,-10.86 0.2,0 0.4,0 0.6,0.01 6.79,0.2 12.93,3.74 16.51,9.57 3.64,5.93 3.94,13.14 0.82,19.3 -8.07,15.9 -24.6,26.02 -42.34,26.02 -0.37,0 -0.73,-0.01 -1.1,-0.02 -12.04,-0.28 -23.02,-5.25 -31.26,-13.14 v 25.89 c 0,11.03 -8.97,20 -20,20 -11.03,0 -20,-8.97 -20,-20 v -25.95 c -1.6,0.41 -3.27,0.66 -5,0.66 -1.73,0 -3.4,-0.25 -5,-0.66 v 25.95 c 0,11.03 -8.97,20 -20,20 -11.03,0 -20,-8.97 -20,-20 v -25.89 c -8.24,7.89 -19.22,12.86 -31.26,13.14 -0.37,0.01 -0.74,0.02 -1.11,0.02 -17.74,0 -34.27,-10.12 -42.33,-26.02 -3.13,-6.16 -2.82,-13.37 0.81,-19.3 3.69,-6 10.08,-9.58 17.11,-9.58 7.52,0 14.33,4.16 17.79,10.86 1.33,2.59 4.07,4.16 6.97,4.03 3.87,-0.19 7.02,-3.7 7.02,-7.82 v -20.89 c -8.24,7.89 -19.22,12.86 -31.26,13.15 h -0.53 c -0.21,0.01 -0.42,0.01 -0.63,0.01 -12.44,0 -24.14,-4.77 -33.08,-13.5 -9.22,-9.01 -14.3,-21.05 -14.3,-33.9 v -8.24 c 0,-11.07 8.8,-20.22 19.63,-20.41 5.42,-0.1 10.52,1.93 14.38,5.72 3.86,3.79 5.99,8.86 5.99,14.27 v 8.23 c 0,4.12 3.14,7.63 7.01,7.82 2.05,0.1 4,-0.63 5.48,-2.04 1.49,-1.41 2.31,-3.31 2.31,-5.35 v -55.9 c -8.49,7.96 -19.88,12.85 -32.4,12.85 -26.14,0 -47.4,-21.27 -47.4,-47.4 v -18.6 c 0,-11.03 8.97,-20 20,-20 11.03,0 20,8.97 20,20 v 18.6 c 0,4.08 3.32,7.4 7.4,7.4 4.08,0 7.4,-3.32 7.4,-7.4 v -46.26 c -14.86,-1.84 -28.45,-10.72 -35.94,-24.94 l -39.92,-75.86 c -1.12,-2.12 -1.15,-4.65 -0.09,-6.8 1.05,-2.15 3.08,-3.67 5.44,-4.08 l 18.09,-3.14 c 28.56,-4.97 53.65,-20.63 70.65,-44.1 8.39,-11.57 18.48,-21.51 30,-29.53 2.66,-1.86 6.21,-1.79 8.81,0.17 18.25,13.79 40.02,21.07 62.96,21.07 22.93,0 44.7,-7.28 62.96,-21.07 2.59,-1.96 6.15,-2.03 8.81,-0.17 11.51,8.02 21.6,17.96 29.99,29.53 17.01,23.47 42.1,39.13 70.65,44.1 l 18.09,3.14 c 2.36,0.41 4.39,1.93 5.45,4.08 z m -48.5,66.57 30.33,-57.64 -7.94,-1.38 c -32.42,-5.64 -60.92,-23.42 -80.23,-50.07 -6.34,-8.76 -13.79,-16.44 -22.17,-22.91 -19.9,13.64 -43.1,20.82 -67.44,20.82 -24.34,0 -47.54,-7.18 -67.44,-20.82 -8.39,6.47 -15.83,14.16 -22.18,22.91 -19.31,26.65 -47.8,44.43 -80.23,50.07 l -7.94,1.38 30.34,57.64 c 47.23,-18.06 96.8,-27.22 147.45,-27.22 50.64,0 100.21,9.16 147.45,27.22 z m 12.35,87.29 v -18.6 c 0,-2.76 -2.25,-5 -5,-5 -2.76,0 -5,2.24 -5,5 v 18.6 c 0,12.35 -10.05,22.4 -22.4,22.4 -12.35,0 -22.4,-10.05 -22.4,-22.4 v -46.82 c -3.05,-0.61 -6.07,-1.52 -9.05,-2.75 -0.32,-0.14 -0.64,-0.26 -0.95,-0.39 v 49.96 c 0,17.86 14.53,32.4 32.4,32.4 17.86,0 32.4,-14.54 32.4,-32.4 z m -25,89.7 v -7.91 c 0,-1.35 -0.53,-2.62 -1.5,-3.57 -0.96,-0.94 -2.25,-1.44 -3.59,-1.42 -2.67,0.04 -4.91,2.52 -4.91,5.41 v 8.24 c 0,6.09 -2.54,12 -6.96,16.22 -4.49,4.27 -10.39,6.45 -16.56,6.15 -11.93,-0.58 -21.28,-10.6 -21.28,-22.8 v -85.57 c 0,-10.81 -8.79,-19.6 -19.6,-19.6 -4.15,0 -7.5,-3.36 -7.5,-7.5 0,-4.14 3.35,-7.5 7.5,-7.5 7.27,0 14.02,2.26 19.6,6.11 v -31.53 c -25.77,-8.73 -52.6,-13.16 -80,-13.16 -27.4,0 -54.24,4.43 -80,13.16 v 31.53 c 5.57,-3.85 12.32,-6.11 19.6,-6.11 4.14,0 7.5,3.36 7.5,7.5 0,4.14 -3.36,7.5 -7.5,7.5 -10.81,0 -19.6,8.79 -19.6,19.6 v 86 c 0,6.09 -2.54,12 -6.96,16.21 -4.49,4.28 -10.35,6.46 -16.56,6.16 -11.93,-0.58 -21.28,-10.6 -21.28,-22.8 v -8.23 c 0,-1.35 -0.53,-2.61 -1.5,-3.56 -0.96,-0.95 -2.23,-1.46 -3.6,-1.43 -2.66,0.04 -4.9,2.52 -4.9,5.41 v 8.24 c 0,8.78 3.47,17.01 9.78,23.17 6.3,6.15 14.59,9.42 23.4,9.22 17.43,-0.42 31.62,-15.28 31.62,-33.14 v -33.85 c 0,-18.68 7.27,-36.26 20.49,-49.5 3.1,-3.09 6.49,-5.9 10.09,-8.35 10.8,-7.37 17.25,-19.58 17.25,-32.65 0,-4.7 -3.7,-8.55 -8.33,-8.81 v 9.14 c 0,4.14 -3.36,7.5 -7.5,7.5 -4.15,0 -7.5,-3.36 -7.5,-7.5 v -9.16 h -12.83 c -4.14,0 -7.5,-3.36 -7.5,-7.5 0,-4.14 3.36,-7.5 7.5,-7.5 h 27.33 c 13.14,0 23.83,10.69 23.83,23.83 0,18.04 -8.9,34.88 -23.8,45.04 -2.83,1.93 -5.5,4.14 -7.94,6.57 -10.37,10.39 -16.09,24.21 -16.09,38.89 v 89.73 c 0,12.19 -9.35,22.21 -21.28,22.8 -8.77,0.45 -17.02,-4.33 -21.05,-12.14 -0.87,-1.68 -2.57,-2.73 -4.45,-2.73 -2.55,0 -3.87,1.7 -4.32,2.43 -0.43,0.7 -1.3,2.54 -0.22,4.67 5.63,11.1 17.3,18.08 29.7,17.79 17.43,-0.41 31.62,-15.28 31.62,-33.14 v -86.41 c 0,-24.82 20.18,-45 45,-45 24.81,0 45,20.18 45,45 v 86.41 c 0,17.86 14.18,32.73 31.61,33.14 12.38,0.29 24.08,-6.69 29.71,-17.79 1.08,-2.13 0.2,-3.97 -0.22,-4.67 -0.45,-0.73 -1.77,-2.43 -4.33,-2.43 -1.87,0 -3.58,1.05 -4.45,2.74 -4.02,7.8 -12.26,12.57 -21.04,12.13 -11.94,-0.59 -21.28,-10.61 -21.28,-22.8 v -89.73 c 0,-18.1 -8.91,-35.04 -23.83,-45.32 -15.03,-10.36 -24,-27.15 -24,-44.92 v -0.26 c 0,-13.14 10.69,-23.83 23.83,-23.83 h 27.32 c 4.14,0 7.5,3.36 7.5,7.5 0,4.14 -3.36,7.5 -7.5,7.5 h -12.82 v 9.16 c 0,4.14 -3.36,7.5 -7.5,7.5 -4.15,0 -7.5,-3.36 -7.5,-7.5 v -9.14 c -4.64,0.26 -8.33,4.11 -8.33,8.81 v 0.26 c 0,12.84 6.54,25.01 17.51,32.57 18.99,13.08 30.32,34.64 30.32,57.67 v 34.6 c 0,8.78 3.47,17.01 9.78,23.17 6.3,6.15 14.6,9.42 23.4,9.22 17.43,-0.42 31.62,-15.28 31.62,-33.14 z m -33.09,-153.12 c 13.98,5.81 29.66,1.23 38.35,-10.62 -44.91,-16.9 -91.98,-25.47 -140.06,-25.47 -48.09,0 -95.16,8.57 -140.07,25.47 8.69,11.85 24.37,16.44 38.35,10.62 32.4,-13.48 66.63,-20.31 101.72,-20.31 35.09,0 69.31,6.83 101.71,20.31 z m -71.71,269.56 v -60.88 -62.91 -23.5 c 0,-16.54 -13.46,-30 -30,-30 -16.54,0 -30,13.46 -30,30 v 23.5 62.91 60.88 c 0,2.76 2.24,5 5,5 2.75,0 5,-2.24 5,-5 v -122.79 c 0,-4.14 3.35,-7.5 7.5,-7.5 4.14,0 7.5,3.36 7.5,7.5 v 77.5 c 0,2.75 2.24,5 5,5 2.75,0 5,-2.25 5,-5 v -77.5 c 0,-4.14 3.35,-7.5 7.5,-7.5 4.14,0 7.5,3.36 7.5,7.5 v 122.79 c 0,2.76 2.24,5 5,5 2.75,0 5,-2.24 5,-5 z m -125,-206.14 v -49.96 c -0.32,0.13 -0.64,0.25 -0.96,0.39 -2.97,1.23 -6,2.15 -9.04,2.76 v 46.81 c 0,12.35 -10.05,22.4 -22.4,22.4 -12.35,0 -22.4,-10.05 -22.4,-22.4 v -18.6 c 0,-2.76 -2.25,-5 -5,-5 -2.76,0 -5,2.24 -5,5 v 18.6 c 0,17.86 14.53,32.4 32.4,32.4 17.86,0 32.4,-14.54 32.4,-32.4 z"
             style="fill:#005faf;fill-opacity:1" /><path
             inkscape:connector-curvature="0"
             id="path981"
             d="m 250.513,277.769 c 3.85,1.53 5.73,5.89 4.21,9.74 -1.17,2.94 -3.99,4.74 -6.98,4.74 -0.91,0 -1.85,-0.17 -2.75,-0.53 -8.8,-3.48 -18.49,-3.48 -27.28,0 -3.85,1.52 -8.21,-0.36 -9.74,-4.21 -1.52,-3.85 0.37,-8.21 4.22,-9.74 12.35,-4.89 25.96,-4.89 38.32,0 z"
             style="fill:#005faf;fill-opacity:1" /><path
             inkscape:connector-curvature="0"
             id="path983"
             d="m 231.353,49.159 c 16.81,0 30.5,13.68 30.5,30.5 0,16.82 -13.69,30.5 -30.5,30.5 -16.82,0 -30.5,-13.68 -30.5,-30.5 0,-16.82 13.68,-30.5 30.5,-30.5 z m 15.5,30.5 c 0,-8.55 -6.96,-15.5 -15.5,-15.5 -8.55,0 -15.5,6.95 -15.5,15.5 0,8.54 6.95,15.5 15.5,15.5 8.54,0 15.5,-6.96 15.5,-15.5 z"
             style="fill:#005faf;fill-opacity:1" /></g></g><g
         id="g987" /></g></g><g
     id="g992"
     transform="translate(0,137.30099)" /><g
     id="g994"
     transform="translate(0,137.30099)" /><g
     id="g996"
     transform="translate(0,137.30099)" /><g
     id="g998"
     transform="translate(0,137.30099)" /><g
     id="g1000"
     transform="translate(0,137.30099)" /><g
     id="g1002"
     transform="translate(0,137.30099)" /><g
     id="g1004"
     transform="translate(0,137.30099)" /><g
     id="g1006"
     transform="translate(0,137.30099)" /><g
     id="g1008"
     transform="translate(0,137.30099)" /><g
     id="g1010"
     transform="translate(0,137.30099)" /><g
     id="g1012"
     transform="translate(0,137.30099)" /><g
     id="g1014"
     transform="translate(0,137.30099)" /><g
     id="g1016"
     transform="translate(0,137.30099)" /><g
     id="g1018"
     transform="translate(0,137.30099)" /><g
     id="g1020"
     transform="translate(0,137.30099)" /></svg>