<?xml version="1.0" encoding="iso-8859-1"?>
<!-- Generator: Adobe Illustrator 19.0.0, SVG Export Plug-In . SVG Version: 6.00 Build 0)  -->
<svg version="1.1" id="Capa_1" xmlns="http://www.w3.org/2000/svg" xmlns:xlink="http://www.w3.org/1999/xlink" x="0px" y="0px"
	 viewBox="0 0 468.293 468.293" style="enable-background:new 0 0 468.293 468.293;" xml:space="preserve">
<path style="fill:#D5D6DB;" d="M462.402,142.21c-3.256,0-5.891,2.638-5.891,5.891v29.208c-2.617-1.227-5.507-1.964-8.583-1.964
	c-11.229,0-20.364,9.138-20.364,20.367s9.135,20.364,20.364,20.364c2.398,0,4.668-0.492,6.806-1.257
	c-3.761,7.332-13.252,12.578-24.426,12.578c-14.451,0-26.203-8.732-26.203-19.467c0-3.253-2.635-5.891-5.891-5.891
	s-5.891,2.638-5.891,5.891c0,17.229,17.039,31.248,37.984,31.248c20.945,0,37.984-14.019,37.984-31.248v-59.83
	C468.293,144.848,465.658,142.21,462.402,142.21z M447.928,204.295c-4.734,0-8.583-3.851-8.583-8.583
	c0-4.734,3.848-8.586,8.583-8.586s8.583,3.851,8.583,8.586C456.511,200.444,452.663,204.295,447.928,204.295z"/>
<path style="fill:#E1E6E9;" d="M411.384,232.282c0-78.885-85.714-142.833-191.446-142.833c-19.272,0-37.866,2.147-55.409,6.099
	c-9.549-18.061-33.272-39.55-91.506-19.231c0,0,29.553,7.086,47.057,34.09c-37.288,17.043-66.114,43.354-80.811,74.622L0,193.479
	v77.605l39.297,8.456c12.499,26.57,35.177,49.566,64.612,66.328l-16.873,45.906c-1.493,4.061,1.356,8.434,5.494,8.434h47.722
	c2.433,0,4.616-1.574,5.494-3.962l10.733-29.201c19.864,5.207,41.209,8.069,63.458,8.069c17.72,0,34.857-1.834,51.144-5.196
	l9.676,26.327c0.878,2.388,3.061,3.962,5.494,3.962h47.722c4.139,0,6.987-4.372,5.494-8.434l-14.701-39.997
	C376.917,326.26,411.384,282.286,411.384,232.282z"/>
<circle style="fill:#D15241;" cx="219.935" cy="232.373" r="95.432"/>
<circle style="fill:#E56353;" cx="219.935" cy="232.373" r="81.42"/>
<path style="fill:#CE412D;" d="M219.981,303.628c-4.705,0-9.347-0.451-13.861-1.34l1.057-5.377c4.174,0.82,8.467,1.236,12.761,1.236
	l0.066,4.954l-0.001,0.526C219.994,303.628,219.987,303.628,219.981,303.628z M233.903,302.262l-1.071-5.377
	c4.218-0.839,8.365-2.1,12.327-3.746l2.104,5.061C242.969,299.986,238.473,301.352,233.903,302.262z M192.75,298.258
	c-4.301-1.777-8.445-3.989-12.318-6.576l3.043-4.558c3.576,2.386,7.4,4.428,11.368,6.067L192.75,298.258z M259.568,291.601
	l-3.051-4.552c3.565-2.39,6.914-5.144,9.955-8.188l3.878,3.873C267.057,286.03,263.43,289.013,259.568,291.601z M169.632,282.838
	c-3.296-3.285-6.283-6.909-8.879-10.77l4.55-3.059c2.397,3.566,5.156,6.913,8.199,9.948L169.632,282.838z M279.205,271.943
	l-4.555-3.048c2.391-3.576,4.437-7.399,6.079-11.362l5.064,2.098C284.013,263.925,281.797,268.068,279.205,271.943z M154.14,259.77
	c-1.792-4.298-3.162-8.793-4.073-13.358l5.374-1.073c0.842,4.211,2.105,8.357,3.758,12.322L154.14,259.77z M289.838,246.266
	l-5.377-1.063c0.83-4.199,1.25-8.516,1.25-12.829v-0.288h5.481v0.288C291.193,237.044,290.738,241.718,289.838,246.266z
	 M148.683,232.519v-0.145c0-4.623,0.446-9.248,1.325-13.744l5.379,1.052c-0.811,4.151-1.223,8.421-1.223,12.693L148.683,232.519z
	 M284.408,219.274c-0.851-4.209-2.124-8.35-3.786-12.312l5.056-2.12c1.801,4.294,3.181,8.785,4.101,13.348L284.408,219.274z
	 M159.094,207.344l-5.069-2.088c1.77-4.301,3.978-8.448,6.561-12.326l4.563,3.038C162.765,199.548,160.728,203.375,159.094,207.344z
	 M274.496,195.623c-2.402-3.557-5.167-6.897-8.22-9.929l3.862-3.889c3.305,3.281,6.3,6.9,8.9,10.751L274.496,195.623z
	 M173.307,185.987l-3.886-3.865c3.284-3.301,6.905-6.292,10.763-8.891l3.062,4.547C179.683,180.177,176.339,182.939,173.307,185.987
	z M256.285,177.548c-3.585-2.382-7.415-4.415-11.382-6.043l2.082-5.072c4.3,1.766,8.449,3.969,12.333,6.549L256.285,177.548z
	 M194.588,171.664l-2.114-5.058c4.294-1.794,8.786-3.169,13.351-4.087l1.081,5.374C202.693,168.738,198.549,170.007,194.588,171.664
	z M232.562,167.811c-4.132-0.803-8.38-1.21-12.624-1.21l-0.151-3.822l0.1-1.659c4.543,0.02,9.245,0.44,13.722,1.311L232.562,167.811
	z"/>
<path style="fill:#E1E6E9;" d="M236.698,232.374c5.739-4.368,9.102-11.067,9.102-18.35c0-12.749-10.372-23.121-23.121-23.121h-2.599
	v-9.543h-4.772v9.543h-5.567v-9.543h-4.772v9.543h-4.772h-6.122v9.543h6.122v27.157h-6.122v9.543h6.122v27.157h-6.122v9.543h6.122
	h4.772v9.543h4.772v-9.543h5.567v9.543h4.772v-9.543h2.599c12.749,0,23.121-10.372,23.121-23.121
	C245.8,243.441,242.437,236.742,236.698,232.374z M222.679,264.302h-12.938v-27.157h12.938c7.487,0,13.578,6.092,13.578,13.578
	C236.257,258.211,230.165,264.302,222.679,264.302z M222.679,227.603h-12.938v-27.157h12.938c7.487,0,13.578,6.092,13.578,13.578
	C236.257,221.511,230.165,227.603,222.679,227.603z"/>
<g>
</g>
<g>
</g>
<g>
</g>
<g>
</g>
<g>
</g>
<g>
</g>
<g>
</g>
<g>
</g>
<g>
</g>
<g>
</g>
<g>
</g>
<g>
</g>
<g>
</g>
<g>
</g>
<g>
</g>
</svg>
