<?xml version="1.0" encoding="iso-8859-1"?>
<!-- Generator: Adobe Illustrator 19.0.0, SVG Export Plug-In . SVG Version: 6.00 Build 0)  -->
<svg version="1.1" id="Capa_1" xmlns="http://www.w3.org/2000/svg" xmlns:xlink="http://www.w3.org/1999/xlink" x="0px" y="0px"
	 viewBox="0 0 512 512" style="enable-background:new 0 0 512 512;" xml:space="preserve">
<path style="fill:#E0B629;" d="M177.766,176.901c-14.162,0-26.848,8.761-31.865,22.004l-39.367,103.929l34.565,20.83l51.299-20.83
	l71.232-125.932H177.766z"/>
<path style="fill:#FADC60;" d="M366.099,198.905c-5.017-13.244-17.703-22.004-31.865-22.004h-70.605
	c-14.162,0-26.848,8.761-31.865,22.004l-39.367,103.929l106.534,27.508l106.534-27.508L366.099,198.905z"/>
<g>
	<path style="fill:#3A484A;" d="M247.633,264.447c-4.267,0-7.726-3.459-7.726-7.726v-9.284c0-4.267,3.459-7.726,7.726-7.726
		c4.267,0,7.726,3.459,7.726,7.726v9.284C255.359,260.988,251.9,264.447,247.633,264.447z"/>
	<path style="fill:#3A484A;" d="M350.231,264.447c-4.267,0-7.726-3.459-7.726-7.726v-9.284c0-4.267,3.459-7.726,7.726-7.726
		s7.726,3.459,7.726,7.726v9.284C357.957,260.988,354.498,264.447,350.231,264.447z"/>
	<path style="fill:#3A484A;" d="M298.932,269.403c-7.165,0-13.899-3.005-18.478-8.243c-2.808-3.213-2.48-8.094,0.732-10.902
		c3.212-2.807,8.093-2.481,10.902,0.733c1.644,1.881,4.139,2.96,6.844,2.96c2.705,0,5.199-1.079,6.845-2.961
		c2.807-3.213,7.689-3.541,10.902-0.732s3.541,7.689,0.731,10.902C312.831,266.399,306.096,269.403,298.932,269.403z"/>
</g>
<path style="fill:#E0B629;" d="M298.932,428.766l71.232-125.932H227.058c-14.162,0-26.848,8.761-31.865,22.004L298.932,428.766z"/>
<path style="fill:#F2C42C;" d="M71.232,302.834c-14.162,0-26.848,8.761-31.865,22.004L0,428.766h85.864l71.232-125.932
	L71.232,302.834L71.232,302.834z"/>
<path style="fill:#FADC60;" d="M259.564,324.838c-5.017-13.244-17.703-22.004-31.865-22.004h-70.606
	c-14.162,0-26.848,8.761-31.865,22.004L85.864,428.766h213.068L259.564,324.838z"/>
<g>
	<path style="fill:#3A484A;" d="M141.099,390.38c-4.267,0-7.726-3.459-7.726-7.726v-9.284c0-4.267,3.459-7.726,7.726-7.726
		c4.267,0,7.726,3.459,7.726,7.726v9.284C148.825,386.921,145.366,390.38,141.099,390.38z"/>
	<path style="fill:#3A484A;" d="M243.697,390.38c-4.267,0-7.726-3.459-7.726-7.726v-9.284c0-4.267,3.459-7.726,7.726-7.726
		c4.267,0,7.726,3.459,7.726,7.726v9.284C251.423,386.921,247.964,390.38,243.697,390.38z"/>
	<path style="fill:#3A484A;" d="M192.398,395.336c-7.164,0-13.899-3.005-18.478-8.244c-2.809-3.213-2.481-8.094,0.731-10.902
		c3.213-2.808,8.094-2.481,10.902,0.732c1.645,1.881,4.139,2.961,6.845,2.961c2.705,0,5.199-1.079,6.845-2.961
		c2.808-3.213,7.689-3.541,10.902-0.731c3.213,2.808,3.541,7.689,0.731,10.902C206.297,392.331,199.562,395.336,192.398,395.336z"/>
</g>
<path style="fill:#F2C42C;" d="M472.633,324.838c-5.017-13.244-17.703-22.004-31.865-22.004h-70.606
	c-14.162,0-26.848,8.761-31.865,22.004l-39.367,103.929H512L472.633,324.838z"/>
<g>
	<path style="fill:#3A484A;" d="M354.167,390.38c-4.267,0-7.726-3.459-7.726-7.726v-9.284c0-4.267,3.459-7.726,7.726-7.726
		s7.726,3.459,7.726,7.726v9.284C361.893,386.921,358.435,390.38,354.167,390.38z"/>
	<path style="fill:#3A484A;" d="M456.764,390.38c-4.267,0-7.726-3.459-7.726-7.726v-9.284c0-4.267,3.459-7.726,7.726-7.726
		c4.267,0,7.726,3.459,7.726,7.726v9.284C464.49,386.921,461.031,390.38,456.764,390.38z"/>
	<path style="fill:#3A484A;" d="M405.466,395.336c-7.165,0-13.9-3.005-18.478-8.244c-2.808-3.213-2.48-8.094,0.732-10.902
		c3.212-2.807,8.093-2.481,10.902,0.733c1.644,1.881,4.138,2.96,6.844,2.96s5.199-1.079,6.844-2.96
		c2.809-3.213,7.689-3.541,10.902-0.732c3.213,2.808,3.542,7.689,0.732,10.902C419.365,392.331,412.63,395.336,405.466,395.336z"/>
</g>
<path style="fill:#F2C42C;" d="M256,132.339c-4.267,0-7.726-3.459-7.726-7.726V90.96c0-4.267,3.459-7.726,7.726-7.726
	c4.267,0,7.726,3.459,7.726,7.726v33.653C263.726,128.88,260.267,132.339,256,132.339z"/>
<path style="fill:#FADC60;" d="M121.17,165.084c-1.977,0-3.955-0.754-5.463-2.263l-23.796-23.796c-3.017-3.017-3.017-7.91,0-10.927
	c3.017-3.017,7.91-3.017,10.926,0l23.796,23.796c3.017,3.017,3.017,7.91,0,10.927C125.124,164.329,123.147,165.084,121.17,165.084z"
	/>
<path style="fill:#F2C42C;" d="M78.122,269.009H44.469c-4.267,0-7.726-3.459-7.726-7.726s3.459-7.726,7.726-7.726h33.653
	c4.267,0,7.726,3.459,7.726,7.726S82.39,269.009,78.122,269.009z"/>
<path style="fill:#FADC60;" d="M390.831,165.084c-1.977,0-3.955-0.754-5.463-2.263c-3.017-3.017-3.017-7.91,0-10.927l23.796-23.796
	c3.017-3.017,7.91-3.017,10.926,0c3.017,3.017,3.017,7.91,0,10.927l-23.796,23.796C394.786,164.329,392.808,165.084,390.831,165.084
	z"/>
<path style="fill:#F2C42C;" d="M467.53,269.009h-33.653c-4.267,0-7.726-3.459-7.726-7.726s3.459-7.726,7.726-7.726h33.653
	c4.267,0,7.726,3.459,7.726,7.726S471.798,269.009,467.53,269.009z"/>
<g>
</g>
<g>
</g>
<g>
</g>
<g>
</g>
<g>
</g>
<g>
</g>
<g>
</g>
<g>
</g>
<g>
</g>
<g>
</g>
<g>
</g>
<g>
</g>
<g>
</g>
<g>
</g>
<g>
</g>
</svg>
