<?xml version="1.0" encoding="iso-8859-1"?>
<!-- Generator: Adobe Illustrator 19.0.0, SVG Export Plug-In . SVG Version: 6.00 Build 0)  -->
<svg version="1.1" id="Capa_1" xmlns="http://www.w3.org/2000/svg" xmlns:xlink="http://www.w3.org/1999/xlink" x="0px" y="0px"
	 viewBox="0 0 468.293 468.293" style="enable-background:new 0 0 468.293 468.293;" xml:space="preserve">
<g>
	<path style="fill:#EBF0F3;" d="M251.119,329.277l-60.48,31.303c20.269,62.524-29.048,107.707-29.048,107.707
		C276.767,408.675,251.119,329.277,251.119,329.277z"/>
	<path style="fill:#EBF0F3;" d="M139.011,217.169l-31.303,60.48C45.183,257.38,0,306.698,0,306.698
		C59.612,191.522,139.011,217.169,139.011,217.169z"/>
</g>
<path style="fill:#27A2DB;" d="M196.298,359.4c-5.489,1.937-11.624,0.431-15.769-3.713l-67.918-67.917
	c-4.144-4.144-5.651-10.28-3.713-15.768c21.634-61.567,56.509-117.645,101.608-162.745c36.596-36.596,79.919-65.927,128.462-84.978
	c10.494-4.144,21.204-7.75,32.183-10.871c30.73-8.772,63.182-13.455,97.141-13.401c0,33.905-4.682,66.357-13.454,97.087
	c-3.121,10.978-6.728,21.688-10.871,32.183C401.613,237.502,307.862,320.166,196.298,359.4z"/>
<ellipse style="fill:#E56353;" cx="287.587" cy="180.725" rx="76.107" ry="76.107"/>
<ellipse style="fill:#FCD462;" cx="287.587" cy="180.725" rx="64.949" ry="64.949"/>
<path style="fill:#F6C358;" d="M247.421,220.916c-2.653-2.653-5.017-5.526-7.061-8.572l3.628-2.436
	c1.891,2.816,4.077,5.472,6.499,7.894l-2.757,2.831l-0.297,0.296C247.428,220.923,247.424,220.919,247.421,220.916z
	 M256.042,227.997l2.428-3.636c2.852,1.905,5.901,3.533,9.064,4.84l-1.668,4.04C262.439,231.826,259.133,230.061,256.042,227.997z
	 M235.093,202.531c-1.423-3.428-2.513-7.012-3.238-10.655l4.286-0.854c0.671,3.362,1.676,6.67,2.989,9.832L235.093,202.531z
	 M276.528,236.458l0.847-4.288c3.358,0.663,6.8,0.998,10.232,0.996l0.003,4.371C283.894,237.54,280.166,237.176,276.528,236.458z
	 M230.751,180.798c-0.006-3.711,0.353-7.439,1.066-11.081l4.291,0.841c-0.66,3.363-0.991,6.806-0.986,10.234L230.751,180.798z
	 M298.689,236.446l-0.85-4.288c3.365-0.668,6.675-1.67,9.836-2.979l1.672,4.039C305.922,234.636,302.336,235.723,298.689,236.446z
	 M235.024,159.052c1.413-3.434,3.176-6.742,5.236-9.83l3.636,2.425c-1.9,2.85-3.526,5.9-4.83,9.068L235.024,159.052z
	 M319.166,227.962l-2.433-3.631c2.836-1.9,5.507-4.098,7.94-6.53l0.162-0.162l3.091,3.091l-0.162,0.162
	C325.13,223.525,322.238,225.904,319.166,227.962z M247.314,140.606l0.081-0.082c2.607-2.607,5.467-4.964,8.498-7.004l2.441,3.627
	c-2.798,1.884-5.439,4.059-7.848,6.468L247.314,140.606z M331.325,209.678c1.893-2.853,3.511-5.907,4.809-9.078l4.046,1.656
	c-1.406,3.437-3.16,6.748-5.215,9.841L331.325,209.678z M267.383,132.28l-1.681-4.036c3.424-1.427,7.008-2.521,10.651-3.251
	l0.86,4.286C273.849,129.954,270.542,130.963,267.383,132.28z M339.073,190.75c0.651-3.36,0.976-6.803,0.964-10.235l4.371-0.015
	c0.014,3.714-0.338,7.444-1.044,11.082L339.073,190.75z M287.442,128.251l-0.012-4.371c3.714-0.01,7.442,0.346,11.084,1.056
	l-0.838,4.291C294.315,128.57,290.871,128.242,287.442,128.251z M338.997,170.287c-0.678-3.365-1.692-6.671-3.011-9.827l4.034-1.686
	c1.429,3.421,2.527,7.003,3.262,10.648L338.997,170.287z M307.521,132.174l1.66-4.045c3.434,1.41,6.742,3.168,9.834,5.224
	l-2.421,3.64C313.742,135.096,310.689,133.474,307.521,132.174z M331.109,151.417c-1.878-2.783-4.043-5.408-6.437-7.802l2.07-2.241
	l0.992-0.879c2.551,2.573,4.966,5.462,6.999,8.478L331.109,151.417z"/>
<path style="fill:#E56353;" d="M297.032,190.16c5.7,0.773,11.374-1.108,15.481-5.215c7.19-7.19,7.19-18.889,0-26.078l-1.466-1.466
	l5.382-5.382l-2.691-2.691l-5.382,5.382l-3.139-3.139l5.382-5.382l-2.691-2.691l-5.382,5.382l-2.691-2.691l-3.453-3.452
	l-5.382,5.382l3.452,3.452l-15.315,15.315l-3.453-3.452l-5.382,5.382l3.453,3.452l-15.315,15.315l-3.452-3.452l-5.382,5.382
	l3.452,3.452l2.691,2.691l-5.382,5.382l2.691,2.691l5.382-5.382l3.139,3.139l-5.382,5.382l2.691,2.691l5.382-5.382l1.466,1.466
	c7.19,7.19,18.889,7.19,26.078,0C295.924,201.534,297.805,195.86,297.032,190.16z M271.12,200.259l-7.296-7.296l15.315-15.315
	l7.296,7.296c4.222,4.222,4.222,11.093,0,15.315C282.213,204.481,275.342,204.481,271.12,200.259z M291.816,179.563l-7.296-7.296
	l15.315-15.315l7.296,7.296c4.222,4.222,4.222,11.093,0,15.315C302.909,183.785,296.038,183.785,291.816,179.563z"/>
<path style="fill:#FCD462;" d="M171.181,385.732c10.867-10.867,10.866-28.485,0-39.351c-10.867-10.867-38.406-38.406-49.273-49.273
	c-10.867-10.867-28.485-10.867-39.351,0c-7.928,7.928-10.002,19.432-6.362,29.303c-3.064,1.351-5.958,3.215-8.468,5.725
	c-9.297,9.297-10.574,23.509-3.961,34.234c-1.843,1.127-3.613,2.414-5.208,4.009c-10.867,10.867-10.866,28.485,0,39.351
	c10.867,10.867,28.485,10.867,39.351,0c1.595-1.595,2.883-3.365,4.009-5.208c10.725,6.613,24.938,5.336,34.234-3.961
	c2.51-2.51,4.374-5.403,5.725-8.468C151.749,395.734,163.253,393.66,171.181,385.732z"/>
<path style="fill:#E1E6E9;" d="M443.967,129.275L338.969,24.278c10.494-4.144,21.204-7.75,32.183-10.871l83.687,83.686
	C451.717,108.071,448.111,118.781,443.967,129.275z"/>
<g>
</g>
<g>
</g>
<g>
</g>
<g>
</g>
<g>
</g>
<g>
</g>
<g>
</g>
<g>
</g>
<g>
</g>
<g>
</g>
<g>
</g>
<g>
</g>
<g>
</g>
<g>
</g>
<g>
</g>
</svg>
