<?xml version="1.0" encoding="UTF-8" standalone="no"?>
<svg
   xmlns:dc="http://purl.org/dc/elements/1.1/"
   xmlns:cc="http://creativecommons.org/ns#"
   xmlns:rdf="http://www.w3.org/1999/02/22-rdf-syntax-ns#"
   xmlns:svg="http://www.w3.org/2000/svg"
   xmlns="http://www.w3.org/2000/svg"
   xmlns:sodipodi="http://sodipodi.sourceforge.net/DTD/sodipodi-0.dtd"
   xmlns:inkscape="http://www.inkscape.org/namespaces/inkscape"
   viewBox="0 0 105 131.25"
   version="1.1"
   xml:space="preserve"
   style=""
   x="0px"
   y="0px"
   fill-rule="evenodd"
   clip-rule="evenodd"
   stroke-linecap="round"
   stroke-linejoin="round"
   stroke-miterlimit="1.5"
   id="svg12"
   sodipodi:docname="hook.svg"
   inkscape:version="0.92.2 5c3e80d, 2017-08-06"><metadata
     id="metadata18"><rdf:RDF><cc:Work
         rdf:about=""><dc:format>image/svg+xml</dc:format><dc:type
           rdf:resource="http://purl.org/dc/dcmitype/StillImage" /><dc:title></dc:title></cc:Work></rdf:RDF></metadata><defs
     id="defs16" /><sodipodi:namedview
     pagecolor="#ffffff"
     bordercolor="#666666"
     borderopacity="1"
     objecttolerance="10"
     gridtolerance="10"
     guidetolerance="10"
     inkscape:pageopacity="0"
     inkscape:pageshadow="2"
     inkscape:window-width="1286"
     inkscape:window-height="810"
     id="namedview14"
     showgrid="false"
     inkscape:zoom="1.7980952"
     inkscape:cx="51.943856"
     inkscape:cy="65.625"
     inkscape:window-x="0"
     inkscape:window-y="0"
     inkscape:window-maximized="0"
     inkscape:current-layer="g6" /><g
     transform="matrix(1.26151,0,0,1.24824,-16.594433,-141.06703)"
     id="g6"><path
       inkscape:connector-curvature="0"
       id="path2"
       style="stroke:none;stroke-width:0.41865658;stroke-opacity:1;stroke-miterlimit:1.5;stroke-dasharray:none;fill:#006ac3;fill-opacity:1"
       d="m 50.916,149.046 c -15.777,4.819 -28.96,23.67 -28.273,44.075 0,0 2.664,-2.474 3.855,-3.579 0.144,-0.134 0.338,-0.201 0.534,-0.186 0.197,0.015 0.378,0.111 0.5,0.266 14.195,17.927 29.8,17.947 40.666,1.283 0.731,-1.121 1.362,-2.305 1.885,-3.539 4.199,-10.116 6.454,-24.61 6.368,-43.525 -10e-4,-0.194 0.101,-0.375 0.268,-0.476 0.166,-0.1 0.374,-0.105 0.545,-0.014 1.95,1.043 6.758,3.614 7.46,3.99 0.088,0.047 0.187,0.07 0.286,0.066 1.109,-0.127 2.207,-2.342 1.844,-4.439 -0.046,-0.247 -0.231,-0.445 -0.474,-0.508 -6.975,-1.841 -11.556,-7.195 -15.005,-13.838 -0.265,-0.513 -0.842,-0.783 -1.405,-0.658 -0.537,0.118 -1.214,0.268 -1.799,0.398 -0.729,0.163 -1.202,0.868 -1.076,1.604 3.275,19.174 1.222,34.885 -4.398,48.278 -0.192,0.456 -0.418,0.897 -0.676,1.318 -7.773,12.569 -22.086,12.237 -24.801,-0.733 -0.473,-3.384 0.173,-6.621 2.377,-9.651 l 5.882,4.621 c -3.296,-9.029 -0.445,-17.591 5.437,-24.753" /></g></svg>