<?xml version="1.0" encoding="iso-8859-1"?>
<!-- Generator: Adobe Illustrator 19.0.0, SVG Export Plug-In . SVG Version: 6.00 Build 0)  -->
<svg version="1.1" id="Capa_1" xmlns="http://www.w3.org/2000/svg" xmlns:xlink="http://www.w3.org/1999/xlink" x="0px" y="0px"
	 viewBox="0 0 512.002 512.002" style="enable-background:new 0 0 512.002 512.002;" xml:space="preserve">
<path style="fill:#506366;" d="M176.162,366.425h-35.665c0,0-87.431,32.379-71.793,145.575h42.557l7.726-6.974l7.726,6.974h49.449
	l23.694-69.845L176.162,366.425z"/>
<path style="fill:#3A484A;" d="M163.161,366.425h-22.664c0,0-87.431,32.379-71.793,145.575h22.664
	C75.73,398.804,163.161,366.425,163.161,366.425z"/>
<polygon style="fill:#EFEDEE;" points="304.059,499.531 213.403,430.588 176.162,430.588 176.162,430.588 176.162,512 291.536,512 
	291.538,512 "/>
<path style="fill:#506366;" d="M371.505,366.425H335.84l0,0l-23.694,75.729L335.84,512l0,0h49.45l7.726-7.661l7.726,7.661h42.556
	C458.936,398.804,371.505,366.425,371.505,366.425z"/>
<g>
	<path style="fill:#3A484A;" d="M111.261,512v-55.458c0-4.267,3.458-7.726,7.726-7.726c4.268,0,7.726,3.459,7.726,7.726V512H111.261
		z"/>
	<path style="fill:#3A484A;" d="M385.29,512v-55.458c0-4.267,3.458-7.726,7.726-7.726c4.268,0,7.726,3.459,7.726,7.726V512H385.29z"
		/>
</g>
<path style="fill:#EFEDEE;" d="M335.84,387.551v-21.126H182.314c3.925,5.496,9.534,12.762,17.009,21.125h-23.162l23.694,43.038
	l94.244,50.438h41.74V387.551L335.84,387.551z"/>
<path style="fill:#C86D5C;" d="M228.371,416c-23.298-20.102-38.114-38.45-46.056-49.574h-6.152v64.164
	c5.909,5.999,12.491,12.264,19.82,18.681c24.881,21.783,53.33,41.037,84.555,57.23c3.624,1.879,7.3,3.704,11,5.501h44.303v-30.973
	C286.759,460.646,251.607,436.049,228.371,416z"/>
<g>
	<circle style="fill:#FBC4AC;" cx="64.975" cy="235.335" r="38.726"/>
	<circle style="fill:#FBC4AC;" cx="447.027" cy="235.335" r="38.726"/>
	<path style="fill:#FBC4AC;" d="M424.18,162.769H88.167v53.613c-0.22,3.478-0.346,6.982-0.346,10.514
		c0,91.615,75.297,165.885,168.179,165.885s168.179-74.269,168.179-165.885c0-3.532-0.126-7.036-0.346-10.514h0.346v-53.613H424.18z
		"/>
</g>
<path style="fill:#3A484A;" d="M156.085,257.91c-4.268,0-7.726-3.459-7.726-7.726v-25.552c0-4.267,3.458-7.726,7.726-7.726
	c4.268,0,7.726,3.459,7.726,7.726v25.552C163.811,254.451,160.353,257.91,156.085,257.91z"/>
<path style="fill:#FD6F71;" d="M165.327,204.401l-9.242-15.363l-9.242,15.363c-7.122,0-12.896,5.773-12.896,12.896l0,0
	c0,7.122,5.773,12.896,12.896,12.896h18.484c7.122,0,12.896-5.773,12.896-12.896l0,0
	C178.222,210.174,172.449,204.401,165.327,204.401z"/>
<path style="fill:#3A484A;" d="M355.917,257.91c-4.268,0-7.726-3.459-7.726-7.726v-25.552c0-4.267,3.458-7.726,7.726-7.726
	c4.268,0,7.726,3.459,7.726,7.726v25.552C363.644,254.451,360.184,257.91,355.917,257.91z"/>
<path style="fill:#FD6F71;" d="M346.676,204.401l9.242-15.363l9.242,15.363c7.122,0,12.896,5.773,12.896,12.896l0,0
	c0,7.122-5.773,12.896-12.896,12.896h-18.483c-7.122,0-12.896-5.773-12.896-12.896l0,0
	C333.78,210.174,339.553,204.401,346.676,204.401z"/>
<path style="fill:#C86D5C;" d="M65.356,204.401C29.077,143.003-2.579,101.13,48.247,101.13C136.157,101.13,123.247,0,256.001,0
	s119.844,101.13,207.754,101.13c50.827,0,19.171,41.873-17.108,103.272H65.356z"/>
<path style="fill:#AD4F3D;" d="M64.398,99.854c-4.995,0.823-10.347,1.274-16.15,1.274c-50.827,0-19.171,41.873,17.108,103.272
	h42.814C79.229,155.422,56.5,117.557,64.398,99.854z"/>
<path style="fill:#FD6F71;" d="M447.023,216.343c0-4.012-0.133-7.992-0.384-11.942h-42.807c0,92.291-44.813,99.502-44.813,99.502
	c-41.207,9.272-61.296-33.481-103.018-33.481s-61.811,42.753-103.018,33.481c0,0-44.813-7.211-44.813-99.502H65.363
	c-0.251,3.949-0.384,7.93-0.384,11.942c0,19.759,3.091,38.804,8.808,56.698h-0.002c0,71.897,20.107,108.699,40.553,69.694
	c19.072,45.47,54.442,97.041,61.824,44.815c21.119,46.372,75.718,96.43,79.839,17.208c4.121,79.222,58.72,29.163,79.839-17.208
	c7.383,52.227,42.753,0.656,61.824-44.815c20.446,39.005,40.553,2.203,40.553-69.694h-0.003
	C443.933,255.147,447.023,236.102,447.023,216.343z"/>
<path style="fill:#3A484A;" d="M256.001,316.896c-9.737,0-18.879-4.069-25.082-11.165c-2.809-3.213-2.481-8.094,0.732-10.902
	c3.212-2.807,8.094-2.481,10.901,0.732c3.268,3.737,8.169,5.881,13.448,5.881s10.18-2.144,13.448-5.881
	c2.807-3.213,7.69-3.541,10.901-0.732c3.213,2.808,3.542,7.689,0.732,10.902C274.88,312.826,265.738,316.896,256.001,316.896z"/>
<path style="fill:#EFEDEE;" d="M301.124,139.639l-29.453-33.284l29.453-33.283c5.666,5.605,14.802,5.589,20.444-0.054
	c5.662-5.662,5.662-14.842,0-20.504c-3.392-3.392-8.045-4.736-12.45-4.063c0.673-4.405-0.672-9.057-4.063-12.45
	c-5.662-5.662-14.842-5.662-20.504,0c-5.642,5.643-5.659,14.778-0.054,20.444l-28.497,32.201l-28.496-32.202
	c5.605-5.666,5.589-14.802-0.054-20.444c-5.662-5.662-14.842-5.662-20.504,0c-3.392,3.392-4.736,8.045-4.063,12.45
	c-4.405-0.673-9.057,0.672-12.45,4.063c-5.662,5.662-5.662,14.842,0,20.504c5.643,5.642,14.778,5.659,20.444,0.054l29.453,33.283
	l-29.453,33.284c-5.666-5.605-14.802-5.589-20.444,0.054c-5.662,5.662-5.662,14.842,0,20.504c3.392,3.392,8.045,4.736,12.45,4.063
	c-0.673,4.405,0.672,9.057,4.063,12.45c5.662,5.662,14.842,5.662,20.504,0c5.642-5.643,5.659-14.778,0.054-20.444l28.496-32.202
	l28.496,32.202c-5.605,5.666-5.589,14.802,0.054,20.444c5.662,5.662,14.842,5.662,20.504,0c3.392-3.392,4.736-8.045,4.063-12.45
	c4.405,0.673,9.057-0.672,12.45-4.063c5.662-5.662,5.662-14.842,0-20.504C315.926,134.049,306.79,134.034,301.124,139.639z"/>
<g>
</g>
<g>
</g>
<g>
</g>
<g>
</g>
<g>
</g>
<g>
</g>
<g>
</g>
<g>
</g>
<g>
</g>
<g>
</g>
<g>
</g>
<g>
</g>
<g>
</g>
<g>
</g>
<g>
</g>
</svg>
