<?xml version="1.0" encoding="iso-8859-1"?>
<!-- Generator: Adobe Illustrator 19.0.0, SVG Export Plug-In . SVG Version: 6.00 Build 0)  -->
<svg version="1.1" id="Capa_1" xmlns="http://www.w3.org/2000/svg" xmlns:xlink="http://www.w3.org/1999/xlink" x="0px" y="0px"
	 viewBox="0 0 468.293 468.293" style="enable-background:new 0 0 468.293 468.293;" xml:space="preserve">
<path style="fill:#D5D6DB;" d="M149.768,169.567c0,0-30.742-5.157-56.712-13.092c0,0,11.542,16.464,27.051,21.938
	c0,0-50.856-2.065-71.055-14.527c0,0,23.805,21.313,38.954,26.788c0,0-36.79-2.215-56.267-14.24c0,0,21.641,25.434,39.675,26.182
	c0,0-45.762-2.833-62.038-15.47c0,0,21.641,22.239,56.267,24.278c0,0-48.332,3.902-65.644-6.407c0,0,36.79,28.272,85.843,12.588
	C85.843,217.604,141.833,171.504,149.768,169.567z"/>
<polygon style="fill:#EBF0F3;" points="64.444,234.146 177.649,152.421 293.292,144.224 366.132,162.84 440.595,212.024 
	468.293,234.146 428.184,265.226 279.523,324.951 176.873,315.871 127.232,281.514 "/>
<circle style="fill:#F6C358;" cx="266.365" cy="234.583" r="91.542"/>
<circle style="fill:#FCD462;" cx="266.365" cy="234.583" r="78.111"/>
<path style="fill:#F6C358;" d="M266.409,302.936c-4.513,0-8.966-0.433-13.296-1.285l1.014-5.158
	c4.004,0.787,8.121,1.186,12.24,1.186l0.063,4.752l-0.001,0.504C266.422,302.936,266.416,302.936,266.409,302.936z M279.764,301.626
	l-1.027-5.158c4.046-0.805,8.024-2.014,11.825-3.593l2.018,4.855C288.46,299.442,284.147,300.753,279.764,301.626z M240.289,297.785
	c-4.125-1.705-8.101-3.826-11.816-6.308l2.919-4.372c3.43,2.289,7.098,4.247,10.904,5.82L240.289,297.785z M304.382,291.399
	l-2.927-4.367c3.42-2.293,6.632-4.934,9.549-7.854l3.72,3.715C311.566,286.055,308.087,288.917,304.382,291.399z M218.114,282.994
	c-3.161-3.151-6.026-6.627-8.517-10.33l4.364-2.934c2.299,3.421,4.946,6.631,7.865,9.542L218.114,282.994z M323.219,272.543
	l-4.369-2.924c2.294-3.43,4.256-7.097,5.831-10.899l4.857,2.013C327.831,264.852,325.705,268.826,323.219,272.543z M203.254,260.866
	c-1.719-4.123-3.033-8.435-3.907-12.813l5.155-1.029c0.807,4.039,2.019,8.016,3.604,11.819L203.254,260.866z M333.418,247.913
	l-5.158-1.019c0.796-4.028,1.199-8.169,1.199-12.306v-0.276h5.258v0.276C334.717,239.067,334.281,243.55,333.418,247.913z
	 M198.019,234.727v-0.139c0-4.435,0.427-8.871,1.271-13.184l5.16,1.009c-0.778,3.982-1.173,8.078-1.173,12.175L198.019,234.727z
	 M328.21,222.022c-0.816-4.037-2.037-8.01-3.631-11.81l4.849-2.033c1.728,4.119,3.051,8.427,3.934,12.804L328.21,222.022z
	 M208.006,210.578l-4.862-2.002c1.698-4.126,3.816-8.103,6.293-11.823l4.377,2.914C211.526,203.1,209.573,206.771,208.006,210.578z
	 M318.702,199.335c-2.304-3.412-4.956-6.616-7.885-9.524l3.704-3.73c3.171,3.147,6.043,6.618,8.537,10.312L318.702,199.335z
	 M221.639,190.092l-3.728-3.707c3.15-3.167,6.623-6.035,10.324-8.528l2.937,4.362C227.755,184.519,224.547,187.168,221.639,190.092z
	 M301.233,181.997c-3.439-2.285-7.112-4.235-10.918-5.797l1.997-4.865c4.124,1.694,8.105,3.807,11.83,6.282L301.233,181.997z
	 M242.052,176.353l-2.028-4.852c4.119-1.721,8.428-3.04,12.806-3.92l1.037,5.155C249.827,173.547,245.851,174.763,242.052,176.353z
	 M278.478,172.657c-3.964-0.77-8.038-1.16-12.109-1.16l-0.145-3.666l0.096-1.592c4.358,0.019,8.868,0.422,13.162,1.258
	L278.478,172.657z"/>
<path style="fill:#DC8744;" d="M282.445,234.588c5.505-4.19,8.731-10.615,8.731-17.602c0-12.229-9.95-22.179-22.179-22.179h-2.493
	v-9.154h-4.577v9.154h-5.34v-9.154h-4.577v9.154h-4.577h-5.872v9.154h5.872v26.049h-5.872v9.154h5.872v26.049h-5.872v9.154h5.872
	h4.577v9.154h4.577v-9.154h5.34v9.154h4.577v-9.154h2.493c12.229,0,22.179-9.95,22.179-22.179
	C291.176,245.203,287.95,238.777,282.445,234.588z M268.997,265.214h-12.41v-26.049h12.41c7.181,0,13.025,5.843,13.025,13.025
	S276.178,265.214,268.997,265.214z M268.997,230.011h-12.41v-26.049h12.41c7.181,0,13.025,5.843,13.025,13.025
	C282.022,224.167,276.178,230.011,268.997,230.011z"/>
<path style="fill:#E1E6E9;" d="M266.368,131.071c-111.52,0-201.924,103.075-201.924,103.075s90.405-62.307,201.924-62.307
	c111.519,0,201.924,62.307,201.924,62.307S377.887,131.071,266.368,131.071z"/>
<path style="fill:#D5D6DB;" d="M266.368,337.221c-111.52,0-201.924-103.075-201.924-103.075s90.405,62.307,201.924,62.307
	c111.519,0,201.924-62.307,201.924-62.307S377.887,337.221,266.368,337.221z"/>
<g>
</g>
<g>
</g>
<g>
</g>
<g>
</g>
<g>
</g>
<g>
</g>
<g>
</g>
<g>
</g>
<g>
</g>
<g>
</g>
<g>
</g>
<g>
</g>
<g>
</g>
<g>
</g>
<g>
</g>
</svg>
