<svg height="512pt" viewBox="-37 0 512 512" width="512pt" xmlns="http://www.w3.org/2000/svg"><path d="m437.816406 375.730469c0 120.898437-98.007812 136.269531-218.90625 136.269531-120.902344 0-218.910156-15.371094-218.910156-136.269531 0-120.902344 98.007812-193.808594 218.910156-193.808594 120.898438 0 218.90625 72.90625 218.90625 193.808594zm0 0" fill="#9ad880"/><path d="m243.648438 511.75c-51.828126-30.667969-74.34375-79.5625-76.476563-126.359375-3.238281-71.132813 52.707031-131.042969 123.886719-132.9375 35.929687-.953125 72.738281-.996094 72.738281-.996094v-25.761719c-38.601563-28.378906-89.324219-43.773437-144.886719-43.773437-120.902344 0-218.910156 72.90625-218.910156 193.808594 0 120.898437 98.007812 136.269531 218.910156 136.269531 8.359375 0 16.617188-.074219 24.738282-.25zm0 0" fill="#8dc971"/><path d="m375.929688 99.074219c0 54.714843-44.359376 99.074219-99.074219 99.074219-54.71875 0-99.074219-44.359376-99.074219-99.074219 0-54.71875 44.355469-99.074219 99.074219-99.074219 54.714843 0 99.074219 44.355469 99.074219 99.074219zm0 0" fill="#ffb600"/><path d="m276.855469 158.378906c-32.699219 0-59.304688-26.605468-59.304688-59.304687s26.605469-59.304688 59.304688-59.304688 59.304687 26.605469 59.304687 59.304688-26.605468 59.304687-59.304687 59.304687zm0 0" fill="#ffcd00"/><path d="m308.339844 177.207031c-20.039063-12.566406-20.441406-43.636719-20.441406-57.074219 0-21.953124-17.796876-39.75-39.75-39.75-21.953126 0-39.75 17.792969-39.75 39.75 0 11.753907 10.507812 61.789063 10.507812 61.789063s86.300781-4.074219 89.433594-4.714844zm0 0" fill="#c6c5ca"/><path d="m260.035156 99.074219c0 54.714843-44.355468 99.074219-99.074218 99.074219-54.714844 0-99.074219-44.359376-99.074219-99.074219 0-54.71875 44.359375-99.074219 99.074219-99.074219 54.71875 0 99.074218 44.355469 99.074218 99.074219zm0 0" fill="#ffde55"/><path d="m160.960938 158.378906c-32.699219 0-59.304688-26.605468-59.304688-59.304687s26.605469-59.304688 59.304688-59.304688c32.699218 0 59.304687 26.605469 59.304687 59.304688s-26.605469 59.304687-59.304687 59.304687zm0 0" fill="#ffeb99"/><path d="m423.683594 215.832031c-51.214844-46.601562-116.1875-74.722656-184.867188-78.570312-12.898437-.722657-8.421875-8.886719-9.53125-20.382813-1.882812-19.523437-17.625-35.269531-37.207031-36.425781-23.046875-1.363281-48.796875 16.542969-41.179687 48.492187 1.878906 7.867188-2.675782 15.855469-10.488282 17.9375-46.621094 12.425782-89.925781 35.871094-126.277344 68.949219-13.539062 12.316407-14.527343 33.277344-2.207031 46.816407 12.320313 13.539062 33.28125 14.523437 46.816407 2.210937 43.914062-39.960937 100.792968-61.96875 160.167968-61.96875 59.371094 0 117.507813 20.667969 160.164063 61.96875 18.75 18.148437 40.277343 4.976563 46.816406-2.210937 12.320313-13.535157 11.332031-34.496094-2.207031-46.816407zm0 0" fill="#d8d7da"/><path d="m105.800781 158.375c-33.425781 13.382812-64.492187 32.730469-91.667969 57.457031-13.539062 12.320313-14.527343 33.28125-2.207031 46.816407 12.320313 13.542968 33.28125 14.523437 46.816407 2.210937 40.199218-36.582031 91.269531-58.117187 145.167968-61.496094-37.117187-4.441406-77.179687.046875-87.628906-5.214843-16.855469-8.488282-10.480469-39.773438-10.480469-39.773438zm0 0" fill="#c6c5ca"/><path d="m218.910156 382.324219c-15.992187 0-28.949218-12.960938-28.949218-28.949219v-21.046875c0-4.363281 3.535156-7.902344 7.902343-7.902344h42.089844c4.367187 0 7.90625 3.539063 7.90625 7.902344v21.046875c-.003906 15.988281-12.960937 28.949219-28.949219 28.949219zm0 0" fill="#57565c"/><path d="m152.953125 353.375c0-13.582031-13.824219-24.589844-30.878906-24.589844-17.050781 0-30.875 11.007813-30.875 24.589844s13.824219 24.589844 30.875 24.589844c17.054687 0 30.878906-11.007813 30.878906-24.589844zm0 0" fill="#ffa6bb"/><path d="m346.617188 353.375c0-13.582031-13.824219-24.589844-30.875-24.589844-17.054688 0-30.878907 11.007813-30.878907 24.589844s13.824219 24.589844 30.878907 24.589844c17.050781 0 30.875-11.007813 30.875-24.589844zm0 0" fill="#ffa6bb"/><g fill="#57565c"><path d="m302 339.878906c-4.269531 0-7.726562-3.460937-7.726562-7.726562v-12.828125c0-4.265625 3.457031-7.726563 7.726562-7.726563 4.265625 0 7.726562 3.460938 7.726562 7.726563v12.828125c0 4.265625-3.460937 7.726562-7.726562 7.726562zm0 0"/><path d="m135.816406 339.878906c-4.265625 0-7.726562-3.460937-7.726562-7.726562v-12.828125c0-4.265625 3.460937-7.726563 7.726562-7.726563 4.269532 0 7.726563 3.460938 7.726563 7.726563v12.828125c0 4.265625-3.457031 7.726562-7.726563 7.726562zm0 0"/></g></svg>