<?xml version="1.0" encoding="iso-8859-1"?>
<!-- Generator: Adobe Illustrator 19.0.0, SVG Export Plug-In . SVG Version: 6.00 Build 0)  -->
<svg version="1.1" id="Capa_1" xmlns="http://www.w3.org/2000/svg" xmlns:xlink="http://www.w3.org/1999/xlink" x="0px" y="0px"
	 viewBox="0 0 468.293 468.293" style="enable-background:new 0 0 468.293 468.293;" xml:space="preserve">
<path style="fill:#D5D6DB;" d="M230.403,1.228L12.79,161.31c-4.913,3.614-2.357,11.404,3.743,11.404l435.227,0
	c6.1,0,8.656-7.79,3.743-11.404L237.888,1.228C235.662-0.409,232.629-0.409,230.403,1.228z"/>
<circle style="fill:#D15241;" cx="234.146" cy="102.219" r="56.844"/>
<circle style="fill:#E56353;" cx="234.146" cy="102.219" r="48.509"/>
<path style="fill:#CE412D;" d="M234.172,144.662c-2.803,0-5.568-0.269-8.257-0.798l0.63-3.203c2.486,0.489,5.043,0.737,7.601,0.737
	l0.039,2.951l-0.001,0.313C234.185,144.662,234.176,144.662,234.172,144.662z M242.465,143.848l-0.638-3.203
	c2.513-0.5,4.983-1.251,7.343-2.231l1.253,3.015C247.866,142.492,245.187,143.306,242.465,143.848z M217.951,141.463
	c-2.562-1.059-5.031-2.376-7.338-3.917l1.813-2.715c2.13,1.421,4.408,2.638,6.772,3.614L217.951,141.463z M257.753,137.497
	l-1.817-2.712c2.124-1.424,4.119-3.064,5.93-4.878l2.31,2.307C262.215,134.179,260.054,135.956,257.753,137.497z M204.18,132.278
	c-1.963-1.957-3.742-4.116-5.289-6.415l2.71-1.822c1.428,2.124,3.071,4.118,4.884,5.926L204.18,132.278z M269.451,125.788
	l-2.713-1.816c1.424-2.13,2.643-4.407,3.621-6.768l3.016,1.25C272.315,121.011,270.995,123.479,269.451,125.788z M194.952,118.536
	c-1.067-2.56-1.884-5.238-2.426-7.957l3.201-0.639c0.501,2.509,1.254,4.978,2.238,7.34L194.952,118.536z M275.785,110.493
	l-3.203-0.633c0.494-2.501,0.745-5.073,0.745-7.642v-0.171h3.265v0.171C276.592,104.999,276.321,107.783,275.785,110.493z
	 M191.701,102.304v-0.086c0-2.754,0.265-5.509,0.789-8.187l3.204,0.627c-0.483,2.473-0.729,5.016-0.729,7.561L191.701,102.304z
	 M272.55,94.414c-0.507-2.507-1.265-4.974-2.255-7.334l3.012-1.263c1.073,2.558,1.895,5.233,2.443,7.951L272.55,94.414z
	 M197.903,87.307l-3.02-1.244c1.055-2.562,2.37-5.032,3.908-7.342l2.718,1.809C200.089,82.663,198.876,84.943,197.903,87.307z
	 M266.646,80.325c-1.431-2.119-3.078-4.108-4.897-5.915l2.301-2.316c1.969,1.955,3.753,4.11,5.302,6.404L266.646,80.325z
	 M206.369,74.585l-2.315-2.302c1.956-1.966,4.113-3.748,6.411-5.296l1.824,2.709C210.167,71.124,208.175,72.77,206.369,74.585z
	 M255.798,69.558c-2.135-1.419-4.417-2.63-6.78-3.6l1.24-3.021c2.561,1.052,5.033,2.364,7.346,3.901L255.798,69.558z
	 M219.046,66.053l-1.259-3.013c2.558-1.069,5.234-1.888,7.953-2.434l0.644,3.201C223.874,64.31,221.405,65.066,219.046,66.053z
	 M241.666,63.758c-2.462-0.478-4.992-0.721-7.52-0.721l-0.09-2.277l0.06-0.988c2.706,0.012,5.507,0.262,8.174,0.781L241.666,63.758z
	"/>
<g>
	<path style="fill:#EBF0F3;" d="M244.13,102.217c3.419-2.602,5.422-6.592,5.422-10.931c0-7.594-6.179-13.773-13.773-13.773h-1.548
		v-5.685h-2.842v5.685h-3.316v-5.685h-2.842v5.685h-2.842h-3.647v5.685h3.647v16.177h-3.647v5.685h3.647v16.177h-3.647v5.685h3.647
		h2.842v5.685h2.842v-5.685h3.316v5.685h2.842v-5.685h1.548c7.594,0,13.773-6.179,13.773-13.773
		C249.552,108.81,247.549,104.819,244.13,102.217z M235.779,121.236h-7.707V105.06h7.707c4.46,0,8.088,3.629,8.088,8.088
		C243.867,117.608,240.239,121.236,235.779,121.236z M235.779,99.375h-7.707V83.198h7.707c4.46,0,8.088,3.629,8.088,8.088
		C243.867,95.746,240.239,99.375,235.779,99.375z"/>
	<rect x="61.671" y="196.302" style="fill:#EBF0F3;" width="47.772" height="200.617"/>
</g>
<g>
	<path style="fill:#E1E6E9;" d="M119.371,172.714h-67.9c-2.881,4.587-2.881,19.001,0,23.588h67.9
		C122.612,192.132,122.612,176.884,119.371,172.714z"/>
	<path style="fill:#E1E6E9;" d="M119.371,396.93h-67.9c-2.881,4.587-2.881,19.001,0,23.588h67.9
		C122.612,416.349,122.612,401.1,119.371,396.93z"/>
</g>
<rect x="160.718" y="196.302" style="fill:#EBF0F3;" width="47.772" height="200.617"/>
<g>
	<path style="fill:#E1E6E9;" d="M218.431,172.714h-67.9c-2.881,4.587-2.881,19.001,0,23.588h67.9
		C221.672,192.132,221.672,176.884,218.431,172.714z"/>
	<path style="fill:#E1E6E9;" d="M218.431,396.93h-67.9c-2.881,4.587-2.881,19.001,0,23.588h67.9
		C221.672,416.349,221.672,401.1,218.431,396.93z"/>
</g>
<rect x="259.809" y="196.302" style="fill:#EBF0F3;" width="47.772" height="200.617"/>
<g>
	<path style="fill:#E1E6E9;" d="M317.491,172.714h-67.9c-2.881,4.587-2.881,19.001,0,23.588h67.9
		C320.732,192.132,320.732,176.884,317.491,172.714z"/>
	<path style="fill:#E1E6E9;" d="M317.491,396.93h-67.9c-2.881,4.587-2.881,19.001,0,23.588h67.9
		C320.732,416.349,320.732,401.1,317.491,396.93z"/>
</g>
<rect x="358.85" y="196.302" style="fill:#EBF0F3;" width="47.772" height="200.617"/>
<g>
	<path style="fill:#E1E6E9;" d="M416.552,172.714h-67.9c-2.881,4.587-2.881,19.001,0,23.588h67.9
		C419.793,192.132,419.793,176.884,416.552,172.714z"/>
	<path style="fill:#E1E6E9;" d="M416.552,396.93h-67.9c-2.881,4.587-2.881,19.001,0,23.588h67.9
		C419.793,416.349,419.793,401.1,416.552,396.93z"/>
</g>
<path style="fill:#D5D6DB;" d="M458.088,468.293H10.204v-17.371c0-6.897,5.591-12.488,12.488-12.488h422.909
	c6.897,0,12.488,5.591,12.488,12.488V468.293z"/>
<path style="fill:#E1E6E9;" d="M443.159,438.434H25.134v-5.428c0-6.897,5.591-12.488,12.488-12.488h393.05
	c6.897,0,12.488,5.591,12.488,12.488V438.434z"/>
<g>
</g>
<g>
</g>
<g>
</g>
<g>
</g>
<g>
</g>
<g>
</g>
<g>
</g>
<g>
</g>
<g>
</g>
<g>
</g>
<g>
</g>
<g>
</g>
<g>
</g>
<g>
</g>
<g>
</g>
</svg>
