<svg height="512pt" viewBox="0 -36 512 511" width="512pt" xmlns="http://www.w3.org/2000/svg"><path d="m0 53.054688h.0195312c0-29.023438 23.5117188-52.554688 52.5351568-52.554688h442.082031c9.589843 0 17.363281 7.773438 17.363281 17.363281v332.199219c0 9.589844-7.773438 17.363281-17.363281 17.363281h-494.636719zm0 0" fill="#774839"/><path d="m484.121094 182.582031h-412.074219v-109.785156c0-9.378906 7.605469-16.984375 16.984375-16.984375h378.105469c9.378906 0 16.984375 7.605469 16.984375 16.984375zm0 0" fill="#92dd7a"/><path d="m161.144531 55.8125h-72.113281c-9.378906 0-16.984375 7.605469-16.984375 16.984375v109.785156h72.113281v-109.785156c0-9.378906 7.605469-16.984375 16.984375-16.984375zm0 0" fill="#7ec66a"/><path d="m484.121094 216.152344h-412.074219v-74.03125c0-9.378906 7.605469-16.980469 16.984375-16.980469h378.105469c9.378906 0 16.984375 7.601563 16.984375 16.980469zm0 0" fill="#d7f3ff"/><path d="m420.777344 105.609375h-368.222656c-29.027344 0-52.554688-23.53125-52.554688-52.554687v333.722656c0 29.023437 23.527344 52.554687 52.554688 52.554687h368.222656c9.589844 0 17.363281-7.773437 17.363281-17.363281v-299c0-9.585938-7.773437-17.359375-17.363281-17.359375zm0 0" fill="#b2785b"/><path d="m72.113281 386.777344v-281.167969h-19.558593c-29.027344 0-52.554688-23.53125-52.554688-52.554687v333.722656c0 29.023437 23.527344 52.554687 52.554688 52.554687h72.113281c-29.027344-.003906-52.554688-23.53125-52.554688-52.554687zm0 0" fill="#935b45"/><path d="m330.0625 279.953125h113.710938c5.324218 0 9.640624-4.316406 9.640624-9.640625v-108.320312c0-5.328126-4.316406-9.644532-9.640624-9.644532h-113.710938c-35.238281 0-63.804688 28.566406-63.804688 63.804688 0 35.238281 28.566407 63.800781 63.804688 63.800781zm0 0" fill="#935b45"/><path d="m366.925781 216.152344c0 20.6875-16.769531 37.457031-37.457031 37.457031s-37.457031-16.769531-37.457031-37.457031 16.769531-37.457032 37.457031-37.457032 37.457031 16.769532 37.457031 37.457032zm0 0" fill="#ffeb99"/><path d="m322.917969 216.152344c0-15.175782 9.03125-28.230469 22.003906-34.117188-4.710937-2.140625-9.941406-3.339844-15.453125-3.339844-20.683594 0-37.453125 16.769532-37.453125 37.457032s16.769531 37.457031 37.453125 37.457031c5.511719 0 10.742188-1.203125 15.453125-3.339844-12.972656-5.886719-22.003906-18.941406-22.003906-34.117187zm0 0" fill="#ffde55"/><g fill="#444346"><path d="m219.070312 383.746094c-9.78125 0-18.886718-5.273438-23.765624-13.757813-2.066407-3.59375-.828126-8.175781 2.761718-10.242187 3.589844-2.0625 8.175782-.824219 10.242188 2.765625 2.210937 3.847656 6.332031 6.234375 10.761718 6.234375 4.425782 0 8.550782-2.390625 10.761719-6.234375 2.0625-3.589844 6.648438-4.828125 10.238281-2.765625 3.59375 2.066406 4.828126 6.652344 2.765626 10.242187-4.878907 8.488281-13.984376 13.757813-23.765626 13.757813zm0 0"/><path d="m284.679688 353.585938c-4.140626 0-7.5-3.359376-7.5-7.5v-11.699219c0-4.144531 3.359374-7.5 7.5-7.5 4.144531 0 7.5 3.355469 7.5 7.5v11.699219c0 4.140624-3.355469 7.5-7.5 7.5zm0 0"/><path d="m153.457031 353.585938c-4.140625 0-7.5-3.359376-7.5-7.5v-11.699219c0-4.144531 3.359375-7.5 7.5-7.5 4.144531 0 7.5 3.355469 7.5 7.5v11.699219c0 4.140624-3.355469 7.5-7.5 7.5zm0 0"/></g><path d="m290.53125 375.699219h-11.699219c-4.140625 0-7.5-3.359375-7.5-7.5 0-4.144531 3.359375-7.5 7.5-7.5h11.699219c4.140625 0 7.5 3.355469 7.5 7.5 0 4.140625-3.359375 7.5-7.5 7.5zm0 0" fill="#eaeaea"/><path d="m159.308594 375.699219h-11.699219c-4.140625 0-7.5-3.359375-7.5-7.5 0-4.144531 3.359375-7.5 7.5-7.5h11.699219c4.140625 0 7.5 3.355469 7.5 7.5 0 4.140625-3.359375 7.5-7.5 7.5zm0 0" fill="#eaeaea"/></svg>