<?xml version="1.0" encoding="UTF-8" standalone="no"?>
<!-- Generator: Adobe Illustrator 19.0.0, SVG Export Plug-In . SVG Version: 6.00 Build 0)  -->

<svg
   xmlns:dc="http://purl.org/dc/elements/1.1/"
   xmlns:cc="http://creativecommons.org/ns#"
   xmlns:rdf="http://www.w3.org/1999/02/22-rdf-syntax-ns#"
   xmlns:svg="http://www.w3.org/2000/svg"
   xmlns="http://www.w3.org/2000/svg"
   xmlns:sodipodi="http://sodipodi.sourceforge.net/DTD/sodipodi-0.dtd"
   xmlns:inkscape="http://www.inkscape.org/namespaces/inkscape"
   version="1.1"
   id="Capa_1"
   x="0px"
   y="0px"
   viewBox="0 0 512 512"
   style="enable-background:new 0 0 512 512;"
   xml:space="preserve"
   sodipodi:docname="parrot.svg"
   inkscape:version="0.92.2 5c3e80d, 2017-08-06"><metadata
     id="metadata1074"><rdf:RDF><cc:Work
         rdf:about=""><dc:format>image/svg+xml</dc:format><dc:type
           rdf:resource="http://purl.org/dc/dcmitype/StillImage" /><dc:title></dc:title></cc:Work></rdf:RDF></metadata><defs
     id="defs1072" /><sodipodi:namedview
     pagecolor="#ffffff"
     bordercolor="#666666"
     borderopacity="1"
     objecttolerance="10"
     gridtolerance="10"
     guidetolerance="10"
     inkscape:pageopacity="0"
     inkscape:pageshadow="2"
     inkscape:window-width="1680"
     inkscape:window-height="925"
     id="namedview1070"
     showgrid="false"
     inkscape:zoom="1.9666407"
     inkscape:cx="396.43565"
     inkscape:cy="260.964"
     inkscape:window-x="0"
     inkscape:window-y="1"
     inkscape:window-maximized="1"
     inkscape:current-layer="Capa_1" /><g
     id="g1001"><path
       style="fill:#FADC60;"
       d="M288.114,512h31.929c7.667,0,13.883-6.215,13.883-13.883c0-7.667-6.215-13.883-13.883-13.883   h-18.047v-39.849c0-7.667-6.215-13.883-13.883-13.883c-7.667,0-13.883,6.215-13.883,13.883v53.732   C274.232,505.785,280.447,512,288.114,512z"
       id="path997" /><path
       style="fill:#FADC60;"
       d="M223.886,512h-31.929c-7.667,0-13.883-6.215-13.883-13.883c0-7.667,6.215-13.883,13.883-13.883   h18.047v-39.849c0-7.667,6.215-13.883,13.883-13.883s13.883,6.215,13.883,13.883v53.732C237.768,505.785,231.553,512,223.886,512z"
       id="path999" /></g><g
     id="g1007"><path
       style="fill:#3287cf;fill-opacity:1"
       d="M371.603,331.185c62.629-52.1,89.209,95.974-49.147,120.42L371.603,331.185z"
       id="path1003" /><path
       style="fill:#3287cf;fill-opacity:1"
       d="M140.397,331.185c-62.629-52.1-89.209,95.974,49.147,120.42L140.397,331.185z"
       id="path1005" /></g><g
     id="g1013"><path
       style="fill:#F2C42C;"
       d="M288.114,430.503c-7.667,0-13.883,6.215-13.883,13.883v44.616c9.588-1.13,18.875-3.143,27.764-5.939   v-38.677C301.996,436.718,295.781,430.503,288.114,430.503z"
       id="path1009" /><path
       style="fill:#F2C42C;"
       d="M223.886,430.503c-7.667,0-13.883,6.215-13.883,13.883v38.677   c8.889,2.796,18.177,4.809,27.764,5.939v-44.616C237.768,436.718,231.553,430.503,223.886,430.503z"
       id="path1011" /></g><ellipse
     style="fill:#66a5db;fill-opacity:1"
     cx="256"
     cy="361.697"
     rx="120.511"
     ry="107.767"
     id="ellipse1015" /><circle
     style="fill:#66a5db;fill-opacity:1"
     cx="256"
     cy="205.253"
     r="156.443"
     id="circle1017" /><path
     style="fill:#3A484A;"
     d="M342.044,249.595c-4.267,0-7.726-3.459-7.726-7.726v-18.987c0-4.267,3.459-7.726,7.726-7.726  c4.267,0,7.726,3.459,7.726,7.726v18.987C349.77,246.136,346.311,249.595,342.044,249.595z"
     id="path1019" /><path
     style="fill:#506366;"
     d="M111.935,274.086c-3.441,0-6.58-2.316-7.477-5.802c-1.063-4.129,1.42-8.338,5.545-9.407l0,0  c0.201-0.053,20.37-5.407,43.955-20.532c31.296-20.069,53.516-46.943,66.041-79.878c1.516-3.989,5.981-5.992,9.968-4.475  c3.989,1.517,5.992,5.98,4.475,9.968c-17.188,45.191-48.989,72.641-72.642,87.712c-25.585,16.302-47.034,21.935-47.934,22.167  C113.221,274.007,112.573,274.086,111.935,274.086z"
     id="path1021" /><path
     style="fill:#FADC60;"
     d="M80.554,118.655c-12.952-24.182-15.17-38.897,11.584-38.897C161.477,79.759,151.289,0,256,0  s94.523,79.759,163.862,79.759c26.755,0,24.537,14.714,11.585,38.897H80.554z"
     id="path1023" /><g
     id="g1029"><path
       style="fill:#3A484A;"
       d="M431.446,118.655c-6.451,12.051-15.555,26.461-25.074,42.563H105.627   c-9.519-16.102-18.624-30.512-25.074-42.563c24.922-3.059,37.114-6.349,37.114-6.349c30.482-7.292,48.912-26.887,63.15-42.026   c19.028-20.223,32.77-34.837,75.182-34.837s56.153,14.613,75.182,34.837c14.238,15.14,32.669,34.735,63.15,42.026   C394.332,112.306,406.525,115.598,431.446,118.655z"
       id="path1025" /><path
       style="fill:#3A484A;"
       d="M181.568,279.875c32.766,0,42.538-35.834,45.44-58.634c1.61-12.654-6.041-24.541-17.678-27.372   c-6.833-1.662-15.895-2.888-27.762-2.888s-20.929,1.226-27.762,2.888c-11.637,2.831-19.289,14.718-17.678,27.372   C139.03,244.041,148.802,279.875,181.568,279.875z"
       id="path1027" /></g><path
     style="fill:#F2C42C;"
     d="M307.747,263.157c-3.085,27.903-25.08,49.537-51.747,49.537s-48.662-21.634-51.747-49.537H307.747  L307.747,263.157z"
     id="path1031" /><path
     style="fill:#FADC60;"
     d="M308.116,256.42c0,2.284-0.123,4.527-0.369,6.736c-13.751,9.684-31.874,15.568-51.747,15.568  s-37.996-5.885-51.747-15.568c-0.245-2.21-0.369-4.452-0.369-6.736c0-31.08,23.337-56.274,52.116-56.274  S308.116,225.341,308.116,256.42z"
     id="path1033" /><path
     style="fill:#3287cf;fill-opacity:1;opacity:1"
     d="M100.637,186.862h310.725c-1.029-8.792-2.787-17.361-5.212-25.644H105.849  C103.424,169.503,101.667,178.071,100.637,186.862z"
     id="path1035" /><path
     style="fill:#3A484A;"
     d="M218.891,161.218c-3.616,9.015-7.956,17.575-13.039,25.644h17.908  c3.952-7.072,7.562-14.69,10.685-22.901c0.343-0.903,0.498-1.831,0.498-2.743L218.891,161.218L218.891,161.218z"
     id="path1037" /><g
     id="g1039" /><g
     id="g1041" /><g
     id="g1043" /><g
     id="g1045" /><g
     id="g1047" /><g
     id="g1049" /><g
     id="g1051" /><g
     id="g1053" /><g
     id="g1055" /><g
     id="g1057" /><g
     id="g1059" /><g
     id="g1061" /><g
     id="g1063" /><g
     id="g1065" /><g
     id="g1067" /></svg>