<?xml version="1.0" standalone="no"?>
<!DOCTYPE svg PUBLIC "-//W3C//DTD SVG 20010904//EN"
 "http://www.w3.org/TR/2001/REC-SVG-20010904/DTD/svg10.dtd">
<svg version="1.0" xmlns="http://www.w3.org/2000/svg"
 width="535.000000pt" height="535.000000pt" viewBox="0 0 535.000000 535.000000"
 preserveAspectRatio="xMidYMid meet">
<metadata>
Created by potrace 1.11, written by Peter Selinger 2001-2013
</metadata>
<g transform="translate(0.000000,535.000000) scale(0.100000,-0.100000)"
fill="#000000" stroke="none">
<path d="M2130 5281 c-283 -60 -504 -224 -785 -582 -11 -14 -48 -44 -81 -67
-170 -115 -370 -299 -512 -472 -48 -58 -91 -108 -97 -113 -12 -9 -154 -54
-192 -62 -27 -5 -82 -12 -151 -19 -62 -7 -67 -19 -67 -187 0 -143 2 -152 22
-169 16 -12 37 -17 77 -15 l55 1 -16 -35 c-44 -103 -107 -284 -117 -335 -2
-12 -7 -28 -10 -36 -3 -8 -8 -26 -10 -40 -3 -14 -14 -70 -25 -125 -29 -150
-42 -286 -43 -445 -1 -85 10 -282 17 -318 2 -10 6 -43 10 -73 10 -87 54 -274
92 -391 223 -700 746 -1270 1423 -1553 126 -53 323 -116 410 -131 14 -3 41 -9
60 -14 40 -10 87 -17 245 -37 79 -10 409 -10 510 0 300 29 591 115 874 257
115 58 345 197 361 219 3 4 24 20 47 37 135 98 369 336 481 489 200 274 338
568 417 885 19 74 36 153 39 175 3 22 7 49 10 60 4 19 9 67 22 195 10 109 4
384 -11 480 -2 14 -7 45 -10 70 -31 233 -124 528 -234 748 -125 251 -272 454
-476 657 -303 304 -636 506 -1035 628 -121 37 -271 72 -355 83 -39 4 -70 19
-138 66 -111 75 -230 132 -338 159 -119 30 -351 35 -469 10z"/>
</g>
</svg>
