<?xml version="1.0" standalone="no"?>
<!DOCTYPE svg PUBLIC "-//W3C//DTD SVG 20010904//EN"
 "http://www.w3.org/TR/2001/REC-SVG-20010904/DTD/svg10.dtd">
<svg version="1.0" xmlns="http://www.w3.org/2000/svg"
 width="1048.000000pt" height="1048.000000pt" viewBox="0 0 1048.000000 1048.000000"
 preserveAspectRatio="xMidYMid meet">
<metadata>
Created by potrace 1.11, written by Peter Selinger 2001-2013
</metadata>
<g transform="translate(0.000000,1048.000000) scale(0.100000,-0.100000)"
fill="#000000" stroke="none">
<path d="M6749 8985 c-3 -2 -22 -7 -42 -9 -21 -3 -43 -8 -49 -12 -6 -4 -25 -8
-42 -9 -17 -2 -32 -4 -33 -5 -2 -1 -7 -3 -12 -4 -14 -2 -65 -49 -78 -73 -12
-21 -11 -163 2 -183 3 -4 8 -30 11 -57 8 -69 12 -98 14 -98 3 0 9 -39 15 -90
3 -27 7 -61 9 -75 5 -28 16 -114 22 -175 2 -22 7 -56 10 -75 3 -19 7 -60 9
-91 2 -31 6 -76 9 -100 44 -391 54 -1140 21 -1529 -3 -30 -7 -80 -10 -110 -8
-106 -15 -175 -19 -205 -3 -16 -8 -59 -11 -95 -4 -35 -9 -68 -11 -71 -4 -7
-16 -109 -18 -156 -1 -13 -3 -23 -6 -23 -5 0 -10 -38 -13 -87 0 -7 -3 -13 -6
-13 -4 0 -6 -12 -5 -27 0 -16 -3 -41 -8 -58 -5 -16 -11 -46 -14 -65 -2 -19 -7
-45 -9 -57 -3 -13 -8 -35 -11 -50 -3 -16 -10 -48 -15 -73 -6 -25 -12 -54 -15
-64 -26 -131 -83 -345 -145 -546 -18 -58 -34 -109 -35 -115 -1 -5 -16 -50 -34
-100 -17 -49 -32 -94 -34 -100 -1 -5 -7 -20 -14 -31 -6 -12 -8 -24 -5 -28 3
-3 1 -6 -6 -6 -7 0 -10 -4 -7 -8 3 -5 -1 -20 -9 -35 -8 -15 -12 -27 -10 -27 7
0 -96 -245 -142 -337 -25 -51 -50 -93 -54 -93 -5 0 -9 -5 -9 -11 0 -12 -53
-90 -87 -129 -13 -13 -23 -30 -23 -37 0 -6 -3 -13 -8 -15 -4 -1 -30 -30 -57
-62 -52 -62 -211 -226 -219 -226 -3 0 -20 -14 -38 -31 -43 -40 -199 -149 -263
-184 -27 -15 -54 -31 -60 -35 -43 -33 -264 -111 -389 -137 -87 -19 -336 -25
-411 -10 -22 4 -47 9 -55 11 -66 12 -260 85 -260 98 0 4 -7 8 -15 8 -9 0 -21
5 -28 10 -7 6 -34 25 -62 43 -92 59 -258 237 -305 327 -7 14 -16 27 -19 30
-26 22 -109 231 -152 380 -24 87 -35 343 -18 445 5 33 11 71 14 85 12 77 66
224 117 323 33 63 105 177 113 177 2 0 10 -6 17 -12 13 -13 32 -27 163 -128
39 -30 72 -57 73 -62 2 -4 9 -8 16 -8 6 0 18 -9 26 -20 8 -11 18 -20 23 -20 4
0 13 -5 20 -10 7 -6 23 -20 37 -32 14 -11 59 -46 100 -76 41 -31 80 -63 87
-71 19 -27 24 -6 9 37 -9 23 -13 42 -10 42 2 0 -1 10 -7 22 -12 22 -37 105
-43 143 -2 11 -9 41 -15 66 -6 25 -13 64 -16 85 -3 22 -8 50 -10 64 -22 138
-23 512 -1 548 4 7 5 16 2 20 -2 4 4 53 15 107 18 90 23 113 34 165 2 8 4 16
5 18 2 1 3 5 4 10 2 4 8 27 16 52 7 25 14 51 16 57 4 20 54 153 76 203 29 64
41 93 44 108 1 8 10 22 18 31 9 10 16 22 16 27 0 24 215 380 270 447 48 59
140 182 140 187 0 8 -153 -43 -182 -60 -10 -5 -22 -10 -27 -10 -5 0 -26 -8
-47 -17 -22 -9 -41 -17 -44 -18 -3 -1 -36 -17 -75 -35 -38 -18 -74 -34 -80
-36 -9 -2 -114 -59 -230 -124 -46 -25 -291 -187 -314 -207 -59 -50 -90 -73
-99 -73 -6 0 -12 -3 -14 -7 -3 -8 -95 -88 -147 -129 -113 -88 -522 -528 -588
-631 -9 -15 -25 -35 -35 -44 -10 -9 -18 -20 -18 -25 0 -4 -8 -17 -19 -28 -23
-27 -171 -243 -171 -251 0 -3 -11 -21 -25 -39 -14 -18 -25 -36 -25 -40 0 -5
-9 -20 -20 -35 -31 -45 -180 -323 -180 -337 0 -8 -4 -14 -10 -14 -5 0 -10 -5
-10 -11 0 -6 -15 -43 -34 -82 -61 -128 -185 -441 -201 -507 -2 -8 -13 -41 -24
-72 -11 -32 -17 -58 -14 -58 3 0 0 -7 -7 -15 -7 -8 -10 -15 -6 -15 4 0 0 -13
-9 -30 -9 -16 -13 -30 -11 -30 3 0 1 -11 -4 -25 -5 -14 -12 -38 -15 -53 -3
-15 -7 -31 -9 -37 -1 -5 -11 -46 -21 -90 -9 -44 -21 -85 -26 -91 -5 -6 -6 -14
-3 -17 4 -3 1 -28 -5 -54 -6 -26 -13 -61 -15 -78 -2 -16 -5 -30 -6 -30 -1 0
-3 -13 -5 -30 -1 -16 -7 -51 -12 -77 -6 -25 -10 -62 -9 -82 1 -20 -1 -36 -5
-36 -3 0 -6 -17 -7 -39 -2 -21 -5 -48 -7 -60 -7 -38 -18 -272 -19 -403 -1 -71
-5 -128 -10 -128 -5 0 -3 -7 4 -15 6 -8 9 -18 7 -23 -3 -4 -3 -13 1 -19 5 -7
34 14 78 55 39 37 115 108 169 157 54 50 109 101 122 114 14 13 39 25 56 27
38 5 57 -10 139 -111 142 -175 387 -430 528 -551 25 -22 47 -41 50 -44 3 -3
30 -25 60 -50 30 -25 57 -47 60 -50 3 -3 30 -23 60 -45 60 -44 64 -46 99 -75
13 -11 28 -20 32 -20 4 0 14 -6 21 -13 7 -7 60 -41 118 -76 118 -70 108 -65
221 -121 79 -40 95 -47 152 -69 12 -4 33 -13 47 -19 25 -10 61 -24 70 -27 3
-1 37 -11 75 -23 114 -35 206 -55 305 -67 30 -4 69 -9 85 -11 42 -5 275 -5
305 0 14 3 50 7 80 11 62 6 62 7 145 24 33 8 65 14 70 15 6 1 15 4 20 7 10 6
49 17 70 19 6 1 15 5 20 10 6 4 27 11 48 15 20 4 37 11 37 16 0 5 7 9 15 9 8
0 23 4 33 9 9 5 58 28 107 52 50 24 92 47 93 52 2 4 8 7 13 7 12 0 139 81 209
133 224 168 426 372 613 621 38 50 75 99 83 109 8 9 14 22 14 27 0 6 4 10 9
10 5 0 12 8 16 19 3 10 17 31 30 47 14 16 25 35 25 42 0 6 4 12 9 12 5 0 12
11 15 25 4 14 11 25 16 25 6 0 10 6 10 14 0 8 6 21 13 28 10 11 68 121 72 138
1 3 13 30 27 60 14 30 31 72 37 92 7 21 17 40 22 43 5 4 9 17 9 31 0 13 5 24
12 24 6 0 9 2 6 5 -3 3 10 47 29 98 19 51 36 99 38 107 2 8 15 51 30 95 21 65
73 240 90 305 2 8 14 51 25 95 11 44 23 87 25 95 16 57 101 460 110 525 2 11
4 20 5 20 1 0 3 9 4 20 2 11 6 40 10 65 4 25 9 56 12 70 2 14 6 34 8 45 2 11
7 40 11 65 3 25 9 58 11 75 3 16 7 48 9 70 3 22 7 49 9 61 2 12 7 45 11 75 3
30 8 65 10 79 2 14 7 52 10 85 4 33 9 71 10 85 13 109 20 183 30 305 3 33 7
80 9 105 7 70 22 289 32 458 14 268 24 609 27 938 2 258 5 274 53 274 28 0 74
-20 74 -32 0 -4 3 -7 8 -6 4 2 61 -26 127 -61 66 -35 152 -81 190 -101 39 -20
115 -61 170 -90 222 -118 233 -123 265 -110 54 22 140 141 140 193 0 7 3 17 7
21 19 18 21 207 3 240 -11 21 -57 42 -112 53 -9 1 -42 13 -75 25 -32 12 -60
22 -63 23 -15 1 -147 61 -161 72 -8 7 -19 13 -24 13 -4 0 -24 10 -44 22 -20
13 -38 23 -41 23 -9 0 -121 76 -200 135 -222 164 -457 429 -641 721 -62 99
-182 306 -192 331 -10 28 -68 58 -113 58 -22 0 -43 -2 -45 -5z"/>
</g>
</svg>
